<?xml version="1.0" standalone="no"?>
<!DOCTYPE svg PUBLIC "-//W3C//DTD SVG 1.1//EN" "http://www.w3.org/Graphics/SVG/1.1/DTD/svg11.dtd" >
<!--
2013-9-30: Created.
-->
<svg>
<metadata>
Created by iconfont
</metadata>
<defs>

<font id="iconfont" horiz-adv-x="1024" >
  <font-face
    font-family="iconfont"
    font-weight="500"
    font-stretch="normal"
    units-per-em="1024"
    ascent="896"
    descent="-128"
  />
    <missing-glyph />
    
    <glyph glyph-name="person" unicode="&#58919;" d="M525.820262 261.738581c-127.22459 0-230.727918 112.720248-230.727918 251.272837S398.595672 764.285279 525.820262 764.285279s230.729965-112.720248 230.729965-251.27386C756.550227 374.457806 653.045875 261.738581 525.820262 261.738581zM525.820262 701.781736c-92.758614 0-168.224376-84.681658-168.224376-188.769294 0-104.086613 75.464739-188.770318 168.224376-188.770318 92.759637 0 168.225399 84.681658 168.225399 188.770318C694.044638 617.099055 618.580922 701.781736 525.820262 701.781736zM943.817308-105.538293c-17.259082 0-31.251771 13.994736-31.251771 31.252795 0 159.477154-173.493379 289.219077-386.746298 289.219077-213.251895 0-386.743228-129.741923-386.743228-289.219077 0-17.258059-13.993712-31.252795-31.252795-31.252795s-31.251771 13.994736-31.251771 31.252795c0 95.54303 47.824215 184.829566 134.664026 251.407913 84.375689 64.691371 196.096167 100.314707 314.583768 100.314707 118.488625 0 230.209102-35.624359 314.584792-100.314707 86.839811-66.577325 134.665049-155.862837 134.665049-251.407913C975.069079-91.543557 961.075367-105.538293 943.817308-105.538293z"  horiz-adv-x="1024" />

    
    <glyph glyph-name="weixin" unicode="&#58921;" d="M382.574279 640.386434c69.043493 0 136.570445-20.525476 190.140525-57.794287 39.933501-27.78174 69.898976-63.379493 87.015819-102.719476-159.28375-5.340635-287.117207-128.525212-287.117207-279.17942 0-12.438287 0.941442-24.998347 2.812045-37.58399-27.131941 0.759293-51.360761 5.732561-79.063707 11.420097-5.969968 1.225921-12.143575 2.492774-18.533099 3.75758-1.908466 0.3776-3.837398 0.564865-5.761214 0.564865-4.592598 0-9.150404-1.066285-13.302981-3.148713l-46.206368-23.170722 8.937556 26.880207c4.143367 12.462846-0.397043 26.165939-11.163247 33.688263-75.354222 52.652174-113.561405 116.124787-113.561405 188.652638 0 63.421448 29.185716 123.004475 82.181721 167.774121 26.227338 22.156626 56.885592 39.572274 91.121324 51.764967C305.655422 633.962118 343.505471 640.386434 382.574279 640.386434M382.574279 670.062314c-173.420725 0-315.478138-118.207216-315.478138-268.309862 0-86.643336 47.26242-157.793816 126.240169-212.977649l-31.553647-94.903463 110.285802 55.304583c39.46278-7.810896 71.124897-15.842827 110.506836-15.842827 9.899464 0 19.716041 0.48914 29.450752 1.25355-6.163373 21.092387-9.734712 43.184545-9.734712 66.106604 0 137.829112 118.358665 249.683642 268.215718 249.683642 10.226922 0 20.344351-0.751107 30.380938-1.868557C673.588235 575.620361 537.691125 670.062314 382.574279 670.062314L382.574279 670.062314zM690.469718 403.749946c65.437361 0 125.366266-18.872836 168.748309-53.140291 45.497217-35.939537 69.545936-86.469374 69.545936-146.127102 0-35.011398-8.332782-63.34777-26.225291-89.176019-18.270109-26.375717-45.600571-48.625464-72.414263-68.741617-9.959839-7.472182-14.196327-20.366863-10.608615-32.289404l2.846838-9.460466-22.982434 12.585643c-4.40431 2.411933-9.31004 3.647063-14.253632 3.647063-2.412956 0-4.837168-0.294712-7.214309-0.890276-30.655184-7.682983-59.610656-14.941294-87.443561-14.941294-34.765805 0-67.289546 4.500501-96.667643 13.375635-29.074176 8.78406-54.409191 21.668509-75.303057 38.297234-21.140483 16.825201-37.521568 37.376259-48.689932 61.083194-11.935843 25.337061-17.987676 54.443983-17.987676 86.511329 0 52.426023 23.981181 101.879342 67.524906 139.251507C564.439326 382.435501 625.212458 403.749946 690.469718 403.749946M690.469718 433.425825c-150.102646 0-268.324188-102.812597-268.324188-228.943272 0-150.245909 118.221542-228.943272 268.324188-228.943272 31.416524 0 63.104223 7.922437 94.658893 15.83157l86.531795-47.385217-23.725354 78.840626c63.325257 47.508014 110.505813 93.490278 110.505813 181.656293C958.439842 350.995441 832.225255 433.425825 690.469718 433.425825L690.469718 433.425825zM274.933723 504.832132c6.019087 0 10.915607-4.89652 10.915607-10.915607s-4.89652-10.915607-10.915607-10.915607-10.915607 4.89652-10.915607 10.915607S268.914636 504.832132 274.933723 504.832132M274.933723 534.508012c-22.417569 0-40.591487-18.172895-40.591487-40.591487s18.172895-40.591487 40.591487-40.591487c22.417569 0 40.591487 18.172895 40.591487 40.591487S297.351292 534.508012 274.933723 534.508012L274.933723 534.508012zM493.549789 504.832132c6.019087 0 10.915607-4.89652 10.915607-10.915607s-4.89652-10.915607-10.915607-10.915607-10.915607 4.89652-10.915607 10.915607S487.530702 504.832132 493.549789 504.832132M493.549789 534.508012c-22.417569 0-40.591487-18.172895-40.591487-40.591487s18.172895-40.591487 40.591487-40.591487c22.417569 0 40.591487 18.172895 40.591487 40.591487S515.967358 534.508012 493.549789 534.508012L493.549789 534.508012zM612.045577 285.844605c6.019087 0 10.915607-4.89652 10.915607-10.915607s-4.89652-10.915607-10.915607-10.915607-10.915607 4.89652-10.915607 10.915607S606.02649 285.844605 612.045577 285.844605M612.045577 315.520485c-22.417569 0-40.591487-18.172895-40.591487-40.591487s18.172895-40.591487 40.591487-40.591487c22.417569 0 40.591487 18.172895 40.591487 40.591487S634.463146 315.520485 612.045577 315.520485L612.045577 315.520485zM775.399015 285.844605c6.019087 0 10.915607-4.89652 10.915607-10.915607s-4.89652-10.915607-10.915607-10.915607-10.915607 4.89652-10.915607 10.915607S769.380952 285.844605 775.399015 285.844605M775.399015 315.520485c-22.417569 0-40.591487-18.172895-40.591487-40.591487s18.172895-40.591487 40.591487-40.591487c22.417569 0 40.591487 18.172895 40.591487 40.591487S797.816584 315.520485 775.399015 315.520485L775.399015 315.520485z"  horiz-adv-x="1024" />

    
    <glyph glyph-name="fangdajing" unicode="&#58937;" d="M949.316555-92.352993l-197.961654 175.61981c24.506137 30.629601 44.420699 64.673975 59.35176 101.618399 20.078291 49.678446 30.259164 102.420671 30.259164 156.760277 0 54.339606-10.180873 107.080807-30.259164 156.760277-19.421328 48.055482-47.241954 91.229794-82.686211 128.322597-35.538401 37.19104-76.959789 66.407456-123.114992 86.836741-47.89994 21.201881-98.778724 31.952736-151.22419 31.952736s-103.326297-10.749832-151.225213-31.952736c-46.155203-20.429285-87.577614-49.6457-123.116015-86.836741-35.44528-37.093826-63.264882-80.267115-82.688257-128.322597-20.078291-49.678446-30.259164-102.420671-30.259164-156.760277 0-54.339606 10.180873-107.081831 30.259164-156.760277 19.422352-48.055482 47.242977-91.228771 82.688257-128.321574 35.538401-37.19104 76.960813-66.407456 123.116015-86.835717 47.89994-21.201881 98.779747-31.952736 151.225213-31.952736s103.325273 10.750855 151.22419 31.952736c38.335097 16.968463 73.391521 40.017412 104.537891 68.644403l199.126176-176.653349c5.845125-5.185093 13.117762-7.735172 20.361747-7.735172 8.473999 0 16.909112 3.488451 22.975271 10.326183C963.160865-123.007153 962.000436-103.604244 949.316555-92.352993zM453.682291-0.82644c-179.696662 0-325.890278 153.633053-325.890278 342.471932 0 188.840926 146.193617 342.473979 325.890278 342.473979 179.694615 0 325.886185-153.633053 325.886185-342.473979C779.568477 152.80559 633.375883-0.82644 453.682291-0.82644z"  horiz-adv-x="1024" />

    
    <glyph glyph-name="icwifi48px" unicode="&#59012;" d="M974.933333 502.666667l-108.8-132.266667c-98.133333 76.8-219.733333 121.6-354.133333 121.6-134.4 0-256-46.933333-354.133333-121.6l-108.8 132.266667c128 100.266667 288 160 462.933333 160C686.933333 662.666667 846.933333 602.933333 974.933333 502.666667zM812.8 304.266667l-93.866667-115.2c-57.6 42.666667-128 68.266667-204.8 68.266667-76.8 0-147.2-25.6-204.8-68.266667l-93.866667 115.2c83.2 64 187.733333 102.4 300.8 102.4C625.066667 406.666667 729.6 368.266667 812.8 304.266667zM663.466667 122.933333l-151.466667-185.6-151.466667 185.6c42.666667 32 93.866667 49.066667 151.466667 49.066667C569.6 172 620.8 152.8 663.466667 122.933333z"  horiz-adv-x="1024" />

    
    <glyph glyph-name="iconfontsuo" unicode="&#58902;" d="M512-128C229.2224-128 0 101.2224 0 384 0 666.752 229.2224 896 512 896c282.7776 0 512-229.248 512-512C1024 101.2224 794.7776-128 512-128zM512 844.8C261.0432 844.8 51.2 634.6752 51.2 384c0-250.6752 209.8432-460.8 460.8-460.8 250.9568 0 460.8 210.1248 460.8 460.8C972.8 634.6752 762.9312 844.8 512 844.8zM281.6 435.2l102.4 0 0 153.6c0 98.7392 33.7408 128 128 128s128-29.2608 128-128l0-153.6 102.4 0 0-307.2L281.6 128 281.6 435.2zM588.8 588.8c0 49.3824-29.6704 76.8-76.8 76.8-47.1296 0-76.8-27.4176-76.8-76.8l0-153.6 153.6 0L588.8 588.8zM332.8 179.2l358.4 0 0 204.8L332.8 384 332.8 179.2z"  horiz-adv-x="1024" />

    
    <glyph glyph-name="shouji-copy-copy" unicode="&#58899;" d="M736.096 630.759h-448.193v-578.917h448.193v578.917zM558.687 677.446c0 5.136-4.202 9.337-9.337 9.337h-93.373c-5.136 0-9.337-4.202-9.337-9.337v-9.337c0-5.136 4.202-9.337 9.337-9.337h93.373c5.136 0 9.338 4.202 9.338 9.337v9.337zM512-60.206c20.543 0 37.349 16.807 37.349 37.349s-16.807 37.349-37.349 37.349c-20.543 0-37.349-16.807-37.349-37.349s16.807-37.349 37.349-37.349zM736.096-116.23h-448.193c-30.814 0-56.024 25.21-56.024 56.024v728.314c0 30.814 25.21 56.024 56.024 56.024h448.193c30.814 0 56.024-25.21 56.024-56.024v-728.314c0-30.814-25.21-56.024-56.024-56.024z"  horiz-adv-x="1024" />

    
    <glyph glyph-name="pause-20" unicode="&#58991;" d="M510.208 844.851c-253.594 0-459.878-206.336-459.878-459.93s206.285-460.032 459.878-460.032c253.696 0 460.083 206.387 460.083 460.032s-206.387 459.93-460.083 459.93zM510.208-25.907c-235.366 0-408.934 175.36-408.934 410.829s173.67 410.778 408.934 410.778c235.469 0 411.75-175.36 411.75-410.778s-176.282-410.829-411.75-410.829zM410.214 537.498h51.149v-307.814h-51.149v307.814zM563.814 537.498h51.149v-307.814h-51.149v307.814z"  horiz-adv-x="1024" />

    
    <glyph glyph-name="rectangle1" unicode="&#58938;" d="M512 875.52C240.68096 875.52 20.48 655.31904 20.48 384 20.48 112.68096 240.68096-107.52 512-107.52 783.31904-107.52 1003.52 112.68096 1003.52 384 1003.52 655.31904 783.31904 875.52 512 875.52L512 875.52 512 875.52 512 875.52ZM512-87.04C250.311111-87.04 40.96 122.311111 40.96 384 40.96 645.688889 250.311111 855.04 512 855.04 773.688889 855.04 983.04 645.688889 983.04 384 983.04 122.311111 773.688889-87.04 512-87.04L512-87.04 512-87.04 512-87.04ZM737.28 388.180195C737.263241 387.504355 737.263241 386.853546 737.137541 386.177706 736.626369 382.398009 734.657092 378.860278 731.137536 376.807727L387.519906 160.430459C387.302027 160.313647 387.067392 160.313647 386.849513 160.205179 386.053423 159.796339 385.207054 159.579402 384.318786 159.345779 383.522695 159.137186 382.760124 158.920249 381.955654 158.870186 381.695877 158.853499 381.478001 158.72 381.209844 158.72 380.665151 158.72 380.195877 158.961967 379.659563 159.028718 378.796433 159.137186 377.966823 159.253998 377.137213 159.537682 376.349503 159.813026 375.679113 160.196835 374.975201 160.605678 374.28805 161.006174 373.634419 161.389986 373.022685 161.915638 372.360673 162.491353 371.84112 163.167193 371.313187 163.876409 370.977991 164.318626 370.517096 164.618998 370.232181 165.119621 370.106483 165.336558 370.106483 165.595212 369.997543 165.820492 369.687486 166.44627 369.536649 167.12211 369.335532 167.79795 369.017096 168.8576 368.740559 169.875532 368.698659 170.95187 368.698659 171.051993 368.64 171.135431 368.64 171.235555L368.64 596.764445C368.64 596.864569 368.698659 596.948007 368.698659 597.04813 368.740559 598.116125 369.017096 599.134056 369.335532 600.185362 369.536649 600.869546 369.687486 601.545386 369.997543 602.179508 370.114861 602.404788 370.106483 602.655099 370.232181 602.880379 370.517096 603.372659 370.96961 603.673031 371.304806 604.115247 371.84112 604.824461 372.360673 605.500301 373.022685 606.084362 373.634419 606.610014 374.28805 606.993826 374.975201 607.385979 375.679113 607.803165 376.349503 608.186974 377.137213 608.453974 377.966823 608.746002 378.796433 608.854471 379.659563 608.962939 380.195877 609.029689 380.665151 609.28 381.209844 609.28 381.478001 609.28 381.695877 609.146501 381.955654 609.129814 382.760124 609.079751 383.522695 608.862814 384.318786 608.654221 385.207054 608.420598 386.053423 608.195318 386.849513 607.794821 387.067392 607.678009 387.310408 607.686353 387.519906 607.561198L731.137536 399.527633C734.657092 397.475082 736.626369 393.937351 737.137541 390.14931 737.263241 389.481814 737.263241 388.847692 737.28 388.180195L737.28 388.180195Z"  horiz-adv-x="1024" />

    
    <glyph glyph-name="dianshi" unicode="&#58920;" d="M950.767598 624.381963 531.953479 624.381963 700.252193 872.181188 666.822281 896l-184.470435-271.618037-108.229341 0L197.967762 886.179963 163.702102 862.361151 323.831381 624.381963 73.232402 624.381963c-34.620853 0-62.681085-28.060233-62.681085-62.681085l0-626.810855c0-34.620853 28.060233-62.681085 62.681085-62.681085l877.535197 0c34.620853 0 62.681085 28.060233 62.681085 62.681085L1013.448684 561.700877C1013.448684 596.32173 985.388451 624.381963 950.767598 624.381963zM971.661294-65.109978c0-11.53332-9.360375-20.893695-20.893695-20.893695L73.232402-86.003673c-11.53332 0-20.893695 9.360375-20.893695 20.893695L52.338706 561.700877c0 11.53332 9.360375 20.893695 20.893695 20.893695l430.201183-0.208937L503.579841 582.594573 950.767598 582.594573c11.53332 0 20.893695-9.360375 20.893695-20.893695L971.661294-65.109978zM741.830647 499.019792 198.594573 499.019792c-34.620853 0-62.681085-28.060233-62.681085-62.681085l0-376.086513c0-34.620853 28.060233-62.681085 62.681085-62.681085l543.236074 0c34.620853 0 62.681085 28.060233 62.681085 62.681085L804.511732 436.338706C804.511732 470.959559 776.4515 499.019792 741.830647 499.019792zM762.724342 60.252193c0-11.53332-9.360375-20.893695-20.893695-20.893695L198.594573 39.358498c-11.53332 0-20.893695 9.360375-20.893695 20.893695L177.700877 436.338706c0 11.53332 9.360375 20.893695 20.893695 20.893695l543.236074 0c11.53332 0 20.893695-9.360375 20.893695-20.893695L762.724342 60.252193zM888.086513 457.232402m-41.78739 0a2 2 0 1 0 83.574781 0 2 2 0 1 0-83.574781 0ZM888.086513 331.870231m-41.78739 0a2 2 0 1 0 83.574781 0 2 2 0 1 0-83.574781 0Z"  horiz-adv-x="1024" />

    
    <glyph glyph-name="chuang" unicode="&#59418;" d="M950.246 328.449c-6.952 15.909-15.47 30.419-25.456 43.426v304.56c0 22.029-17.431 41.355-38.849 41.355h-721.537c-22.587 0-39.614-18.581-39.614-41.355v-305.459c-9.81-12.769-18.197-26.957-25.064-42.45-15.547-35.047-23.43-76.952-23.43-124.569v-145.854c0-7.204 5.814-13.040 12.986-13.040h87.539c7.171 0 12.985 5.836 12.985 13.040v51.363h669.639v-51.363c0-7.204 5.814-13.040 12.985-13.040h87.539c7.16 0 12.976 5.826 12.984 13.008l0.296 132.856h0.021v13.042c0.002 47.628-7.739 89.51-23.023 124.479v0zM170.349 653.53c0 8.278 5.475 13.85 13.643 13.85h685.165c8.059 0 12.866-7.040 12.866-13.85v-261.487c-1.087 0.941-2.181 1.883-3.274 2.803-8.738 7.236-26.236 13.379-35.4 18.591v55.117c0 54.286-23.014 77.433-76.95 77.433h-177.091c-31.425 0-52.404-7.697-64.525-24.571-12.122 16.872-33.1 24.571-64.524 24.571h-181.285c-53.936 0-72.757-23.146-72.757-77.433v-55.796c-7.884-4.511-24.033-9.779-33.077-15.909h-2.792v256.681zM808.99 461.964v-21.767c-21.537 8.3-41.77 11.693-56.551 11.693h-207.673v10.752c0 39.306 11.562 43.642 51.538 43.642h161.697c39.549 0.002 50.989-4.488 50.989-44.32v0zM503.401 461.242v-7.951h-213.093c-12.296 0-26.277-3.054-49.72-12.218v19.49c0 39.833 5.836 45.723 45.386 45.723h167.291c39.975 0.001 50.137-5.748 50.137-45.044v0zM174.543 351.060c30.668 37.961 59.4 46.369 95.509 50.486l251.545 7.029c67.435 0 255.608-7.029 255.608-7.029 46.676-4.118 67.698-23.628 81.836-36.44 42.899-38.847 53.87-60.417 64.742-134.422h-797.053c-0.001 57.603 43.117 114.714 47.814 120.376v0zM927.438 85.182h-30.822v54.175c0 7.205-5.814 13.040-12.984 13.040h-719.404c-7.171 0-12.986-5.835-12.986-13.040v-54.175h-27.997v105.736h804.445l-0.253-105.736z"  horiz-adv-x="1024" />

    
    <glyph glyph-name="yulan" unicode="&#58882;" d="M511.658 674.546c-245.145 0-444.059-280.369-444.059-290.881 0-9.844 198.912-290.213 444.059-290.213 245.801 0 441.578 292.841 444.702 290.213 3.272-1.952-198.901 290.881-444.702 290.881zM883.885 383.69c-2.647 2.435-164.169-228.212-372.194-228.212-238.119 0-371.676 228.212-371.676 228.212s164.179 228.834 371.676 228.834c208.025 0 374.954-230.634 372.194-228.834zM509.738 497.334c-58.651 0-106.068-48.529-106.068-108.896 0-60.015 47.417-108.898 106.068-108.898 58.993 0 106.41 48.883 106.41 108.898 0.001 60.367-47.417 108.896-106.41 108.896z"  horiz-adv-x="1024" />

    
    <glyph glyph-name="xindiantu" unicode="&#58934;" d="M785.92 757.76c-110.08 28.16-215.04-15.36-273.92-94.72-58.88 79.36-163.84 122.88-273.92 94.72-112.64-30.72-189.44-138.24-186.88-256 5.12-261.12 217.6-440.32 437.76-542.72 15.36-7.68 33.28-7.68 48.64 0 220.16 102.4 432.64 281.6 437.76 542.72 0 117.76-74.24 227.84-189.44 256z m-276.48-750.08c-115.2 53.76-273.92 151.04-353.28 299.52h230.4c10.24 0 17.92 5.12 20.48 15.36l25.6 76.8 53.76-199.68c2.56-10.24 12.8-17.92 23.04-17.92s20.48 7.68 23.04 15.36l61.44 158.72 23.04-35.84c5.12-7.68 10.24-10.24 17.92-10.24h53.76c15.36 0 25.6 10.24 25.6 25.6s-10.24 25.6-25.6 25.6h-35.84l-40.96 66.56c-5.12 7.68-15.36 12.8-23.04 12.8-10.24 0-17.92-7.68-20.48-15.36l-51.2-133.12-56.32 204.8c-2.56 10.24-12.8 17.92-23.04 17.92-12.8 0-20.48-7.68-25.6-17.92l-46.08-135.68h-235.52c-15.36 43.52-28.16 89.6-28.16 140.8-2.56 94.72 56.32 186.88 148.48 209.92 87.04 23.04 171.52-7.68 220.16-74.24l23.04-30.72c10.24-12.8 28.16-12.8 35.84 0l23.04 30.72c51.2 69.12 135.68 97.28 222.72 74.24 89.6-25.6 145.92-110.08 145.92-202.24-2.56-266.24-245.76-422.4-407.04-499.2 0-5.12-2.56-5.12-5.12-2.56z"  horiz-adv-x="1024" />

    
    <glyph glyph-name="xin" unicode="&#58895;" d="M508.783-31.208c-4.998 0-9.607 1.098-13.7 3.263-59.828 29.747-168.302 110.899-265.239 218.887-50.848 56.644-91.277 112.65-120.163 166.465-33.727 62.83-50.828 121.363-50.828 173.974 0 108.376 50.56 170.902 92.974 204.272 47.115 37.068 111.558 59.198 172.384 59.198 37.786 0 76.862-11.6 116.144-34.479 28.826-16.79 52.34-36.52 68.427-51.785 16.088 15.264 39.6 34.996 68.428 51.785 39.28 22.878 78.353 34.48 116.137 34.48 60.826 0 125.27-22.13 172.387-59.199 42.416-33.369 92.978-95.896 92.978-204.272 0-52.606-17.1-111.14-50.824-173.974-28.879-53.804-69.296-109.813-120.132-166.464-96.908-107.997-205.344-189.197-265.083-218.94a31.315 31.315 0 0 0-13.89-3.21zM324.213 733.93c-82.017 0-204.038-53.943-204.038-202.55 0-186.876 268.955-430.488 388.61-497.762 119.63 67.262 388.537 310.86 388.537 497.763 0 148.606-121.982 202.549-203.973 202.549-43.25 0-83.864-23.238-110.32-42.734-28.975-21.35-47.966-43.057-50.166-45.625l-0.081-0.132-0.485-0.55c-5.936-6.742-14.726-10.766-23.514-10.766-8.78 0-17.57 4.022-23.512 10.762l-0.357 0.405-0.076 0.111c-3.783 4.396-77.925 88.529-160.625 88.529z"  horiz-adv-x="1024" />

    
    <glyph glyph-name="huangguan" unicode="&#59056;" d="M508.658-127.986c-68.31 0-134.596 13.388-197.017 39.791-60.276 25.495-114.398 61.983-160.864 108.45-46.467 46.468-82.955 100.59-108.449 160.863-26.403 62.423-39.79 128.71-39.79 197.017 0 68.307 13.387 134.592 39.79 197.017 25.493 60.274 61.98 114.396 108.45 160.864 46.467 46.468 100.59 82.956 160.863 108.45 62.422 26.402 128.708 39.789 197.017 39.789 68.306 0 134.592-13.387 197.017-39.79 60.273-25.493 114.396-61.98 160.863-108.45 46.467-46.464 82.954-100.585 108.45-160.863 26.403-62.423 39.79-128.708 39.79-197.017s-13.386-134.594-39.79-197.018c-25.496-60.277-61.983-114.4-108.45-160.864-46.466-46.466-100.588-82.954-160.863-108.449-62.42-26.402-128.708-39.79-197.017-39.79z m0 930.548c-234.031 0-424.428-190.397-424.428-424.428 0-234.032 190.398-424.43 424.428-424.43s424.428 190.398 424.428 424.43c0 234.03-190.397 424.428-424.428 424.428zM508.658 822.985c-245.291 0-444.851-199.559-444.851-444.851s199.56-444.852 444.85-444.852S953.51 132.842 953.51 378.134s-199.56 444.85-444.851 444.85zM284.424 116.992l18.286-28.824 42.224-20.882 16.236 109.61zM363.141 178.433l-1.97-1.538-16.237-109.609 31.459-15.557 22.31 150.622zM398.704 202.35l-22.311-150.62 31.458-15.559 28.352 191.398zM436.203 227.569L407.851 36.17l31.46-15.557 34.39 232.174zM473.702 252.788L439.31 20.614l31.458-15.557 40.431 272.95zM511.2 278.007l-40.43-272.95 31.458-15.558 46.471 313.727zM548.699 303.226l-46.471-313.727 31.458-15.557 52.512 354.503zM586.198 328.445l-52.512-354.503 31.459-15.558 58.551 395.28zM623.696 353.663l-58.551-395.279 31.458-15.557 64.592 436.056zM661.195 378.883l-64.592-436.056 1.163-0.575a440.806 440.806 0 0 1 33.746 8.311l67.181 453.538-37.498-25.218zM698.693 404.102l-67.18-453.538a441.143 441.143 0 0 1 35.522 11.878l69.157 466.88-37.499-25.22zM736.192 429.32l-69.157-466.879a442.304 442.304 0 0 1 36.083 15.663l70.573 476.435-37.499-25.219zM773.69 454.54l-70.572-476.436a444.226 444.226 0 0 1 36.743 20.12l71.328 481.535-37.498-25.22zM811.19 479.758L739.86-1.776a446.538 446.538 0 0 1 37.562 25.65l71.264 481.104-37.498-25.22zM849.935 505.815l-1.247-0.838-71.264-481.104a448.431 448.431 0 0 1 38.659 33.053l64.124 432.9-30.272 15.99zM880.207 489.826l-64.124-432.9a448.764 448.764 0 0 1 40.29 44.064l55.147 372.297-31.313 16.54zM911.52 473.287L856.373 100.99a446.487 446.487 0 0 1 43.464 65.492l42.997 290.265-31.314 16.54zM942.833 456.747l-42.996-290.265c34.213 62.977 53.67 135.082 53.67 211.652 0 26.063-2.26 51.606-6.582 76.451l-4.092 2.162zM167.38 506.05l2.19 6.176c5.629 16.81 20.327 28.067 38.232 29.32 16.342 1.173 32.682-8.366 40.344-23.378 7.819-15.324 5.63-33.384-5.708-46.833-1.328-1.485-2.658-2.97-4.142-4.69 31.664-19.39 63.173-38.546 94.525-57.857 11.884-7.35 23.846-14.699 35.73-21.813 6.802-3.988 12.04-2.815 15.715 3.831a264110.24 264110.24 0 0 1 108.442 197.808c-15.714 7.975-25.88 20.172-26.817 38.233-0.626 12.666 3.83 23.534 12.822 32.368 17.826 17.358 47.067 15.716 62.704-3.518 17.984-22.048 11.493-47.849-17.044-67.24 9.305-17.043 18.687-34.166 28.147-51.21 26.193-47.695 52.228-95.23 78.42-142.923 6.02-11.024 9.851-12.04 20.64-5.63 40.5 24.706 80.923 49.57 121.422 74.355 1.876 1.173 3.674 2.345 5.864 3.674-8.365 8.366-13.683 17.826-14.308 29.476-1.172 21.813 13.84 40.891 34.87 44.487 21.893 3.832 42.221-8.678 48.71-29.867 0.47-1.642 1.174-3.362 1.799-5.004v-14.698c-6.88-22.049-21.032-34.871-45.349-35.028-0.86-2.501-1.798-5.003-2.501-7.505-23.69-81.234-47.38-162.625-71.071-243.858-3.048-10.634-6.802-13.37-17.514-13.37H304.36c-11.493 0-15.012 2.658-18.139 13.37-19.313 65.91-38.389 132.055-57.7 197.964-5.16 17.826-10.478 35.652-15.716 53.557-18.139 0-31.821 7.193-40.344 22.83-2.033 3.83-3.361 8.13-5.003 12.196-0.078 5.081-0.078 9.929-0.078 14.776m0 0zM508.5 148.822h191.164c17.043 0 30.648-12.04 32.524-28.226 1.877-16.34-8.834-31.196-25.332-34.87-2.345-0.626-4.848-0.703-7.192-0.703H317.18c-14.542 0-26.817 8.678-31.038 21.812-4.38 13.135-0.314 27.991 11.336 35.497 6.02 3.83 13.995 6.489 21.032 6.489 63.408 0.313 126.738 0.001 189.99 0.001m0 0z"  horiz-adv-x="1024" />

    
    <glyph glyph-name="fangzi" unicode="&#58883;" d="M811.2 83.8v329.6l26.2-21.8 47.8 57.6-373.2 309.8-187-155.2v153.2h-74.8v-215.4l-111.4-92.4 47.8-57.6 26.2 21.8v-329.6h-74.8v-74.8h224.4v374h299.2v-374h224.4v74.8zM437.2 308.2h149.6v-299.2h-149.6z"  horiz-adv-x="1024" />

    
    <glyph glyph-name="xueshimao" unicode="&#59163;" d="M1468.934797 657.739785L760.355842 893.980846a39.517735 39.517735 0 0 1-24.806753 0L26.970133 657.739785a39.37351 39.37351 0 0 1 0-74.564486l209.270927-69.80505v-207.828674a39.661961 39.661961 0 0 1 11.538025-27.835485c6.922815-6.922815 173.070374-168.88784 500.17338-168.88784a843.718072 843.718072 0 0 1 330.275964 63.747588 39.37351 39.37351 0 1 1-30.575766 72.112655 764.394151 764.394151 0 0 0-299.555972-57.690124 753.288802 753.288802 0 0 0-333.304695 72.833782 519.211121 519.211121 0 0 0-99.65969 62.882236v164.416855L735.549089 346.934239a38.796609 38.796609 0 0 1 24.950978 0l420.561009 140.187003v-70.237727a118.12053 118.12053 0 0 1-8.509294-219.222473l-69.083924-276.191472A39.37351 39.37351 0 0 1 1141.687566-127.999712h157.349815a39.37351 39.37351 0 0 1 38.219707 48.892381l-69.083924 276.768373a118.12053 118.12053 0 0 1-8.509293 219.222473v96.486734l209.270926 69.80505a39.37351 39.37351 0 0 1 0 74.564486zM1220.29036 344.915085a39.37351 39.37351 0 1 0-39.37351-39.37351 39.37351 39.37351 0 0 0 39.37351 39.37351z m-28.845062-393.590875l28.845062 113.216869 28.845063-113.216869h-57.257449z m25.23943 630.985738l-462.242124 77.016316a39.37351 39.37351 0 0 1-12.980278-77.593218l315.997658-52.642238-309.507519-103.265323-584.112511 194.70417 584.112511 194.704171 584.112512-194.704171-115.380249-38.219707z"  horiz-adv-x="1496" />

    
    <glyph glyph-name="hongganji" unicode="&#58894;" d="M734.6 64.1H292.4c-37.6 0-68.2 30.6-68.2 68.2V677.4c0 37.6 30.6 68.2 68.2 68.2h442.2c37.6 0 68.2-30.6 68.2-68.2v-545.1c0-37.6-30.6-68.2-68.2-68.2zM292.4 718.4c-22.6 0-41-18.4-41-41v-545.1c0-22.6 18.4-41 41-41h442.2c22.6 0 41 18.4 41 41V677.4c0 22.6-18.4 41-41 41H292.4zM419.2 407.9c-1.3 0-2.7 0.3-4 0.8-5.2 2.2-7.6 8.2-5.4 13.4 0.2 0.4 16.4 39.7-5.9 78.1-22.5 38.8 1.2 97 2.3 99.5 2.2 5.2 8.1 7.7 13.4 5.5 5.2-2.2 7.7-8.1 5.5-13.4-0.2-0.5-20.9-51.4-3.5-81.4 27.6-47.5 7.8-94.5 7-96.4-1.7-3.8-5.4-6.1-9.4-6.1zM517.5 407.9c-1.3 0-2.7 0.3-4 0.8-5.2 2.2-7.6 8.2-5.4 13.4 0.2 0.4 16.4 39.7-5.9 78.1-22.5 38.8 1.3 97 2.3 99.5 2.2 5.2 8.1 7.7 13.4 5.5 5.2-2.2 7.7-8.1 5.5-13.4-0.2-0.5-20.9-51.4-3.5-81.4 27.6-47.5 7.9-94.4 7-96.4-1.7-3.8-5.4-6.1-9.4-6.1zM615.8 407.9c-1.3 0-2.7 0.3-4 0.8-5.2 2.2-7.6 8.2-5.4 13.4 0.2 0.4 16.4 39.7-5.9 78.1-22.5 38.8 1.2 97 2.3 99.5 2.2 5.2 8.1 7.7 13.4 5.5 5.2-2.2 7.7-8.1 5.5-13.4-0.2-0.5-20.9-51.4-3.5-81.4 27.6-47.5 7.8-94.5 7-96.4-1.7-3.8-5.4-6.1-9.4-6.1zM739.6 9.5H287.3c-7.5 0-13.6 6.1-13.6 13.6v54.5c0 7.5 6.1 13.6 13.6 13.6h452.3c7.5 0 13.6-6.1 13.6-13.6v-54.5c0.1-7.5-6-13.6-13.6-13.6zM301 36.8h425v27.3H301v-27.3zM419.3 159.5c-45.1 0-81.8 36.7-81.8 81.8 0 45.1 36.7 81.8 81.8 81.8s81.8-36.7 81.8-81.8c0-45.1-36.7-81.8-81.8-81.8z m0 136.3c-30.1 0-54.5-24.5-54.5-54.5s24.5-54.5 54.5-54.5c30.1 0 54.5 24.5 54.5 54.5s-24.4 54.5-54.5 54.5zM521.6 159.5c-7.5 0-13.6 6.1-13.6 13.6s6.1 13.6 13.6 13.6c30.1 0 54.5 24.5 54.5 54.5s-24.5 54.5-54.5 54.5c-7.5 0-13.6 6.1-13.6 13.6s6 13.7 13.6 13.7c45.1 0 81.8-36.7 81.8-81.8-0.1-45-36.7-81.7-81.8-81.7zM623.8 159.5c-7.5 0-13.6 6.1-13.6 13.6s6.1 13.6 13.6 13.6c30.1 0 54.5 24.5 54.5 54.5s-24.5 54.5-54.5 54.5c-7.5 0-13.6 6.1-13.6 13.6s6.1 13.6 13.6 13.6c45.1 0 81.8-36.7 81.8-81.8 0-44.9-36.7-81.6-81.8-81.6z"  horiz-adv-x="1024" />

    
    <glyph glyph-name="yigui" unicode="&#58884;" d="M1015.694887 895.872621H8.356064a8.534395 8.534395 0 0 1-8.31785-8.661774v-1006.676452a8.419754 8.419754 0 0 1 8.31785-8.534395h1007.338823a8.432492 8.432492 0 0 1 8.330589 8.534395V887.210847a8.547133 8.547133 0 0 1-8.330589 8.661774zM52.824083 121.662893V839.953228h432.655604v-718.290335H52.824083z m432.655604-55.919393v-137.696728H52.824083V65.7435h432.655604z m492.956835 0v-137.696728H545.742704V65.7435h432.642866z m-432.642866 55.919393V839.953228h432.642866v-718.290335H545.742704z m169.108396-133.49322h108.78169a28.023386 28.023386 0 0 1 0 55.919393h-108.78169a28.023386 28.023386 0 0 1-0.050951-55.919393z m-108.616096 598.044533a26.036273 26.036273 0 0 1-26.4821-27.896007v-116.169673a26.520313 26.520313 0 1 1 52.951462 0v116.169673a26.036273 26.036273 0 0 1-26.520314 27.896007z m-181.247618 0a26.036273 26.036273 0 0 1-26.469362-27.896007v-116.297052a26.520313 26.520313 0 1 1 52.951462 0.127379v116.169673a26.036273 26.036273 0 0 1-26.533052 27.896007zM207.65329-11.830327h108.768952a28.023386 28.023386 0 0 1 0 55.919393h-108.819903a28.023386 28.023386 0 0 1 0-55.919393z"  horiz-adv-x="1024" />

    
    <glyph glyph-name="emoji" unicode="&#58974;" d="M909.866667-94.4C646.4-94.4 432 120 432 383.466667S646.4 861.333333 909.866667 861.333333c263.466667 0 477.866667-214.4 477.866666-477.866666S1173.333333-94.4 909.866667-94.4z m0 887.466667C684 793.066667 500.266667 609.333333 500.266667 383.466667S684-26.133333 909.866667-26.133333s409.6 183.733333 409.6 409.6S1135.733333 793.066667 909.866667 793.066667zM910.933333 104.666667c-95.066667 0-183.333333 43.066667-242 118-11.6 14.8-9.066667 36.266667 5.866667 47.866666 14.8 11.6 36.266667 9.066667 47.866667-5.866666 45.6-58.4 114.266667-91.733333 188.266666-91.733334 74.8 0 143.866667 34 189.466667 93.333334 11.466667 14.933333 32.933333 17.733333 47.866667 6.266666 14.933333-11.466667 17.733333-32.933333 6.266666-47.866666-58.533333-76.266667-147.333333-120-243.6-120zM757.333333 380c-28.266667 0-51.2 22.933333-51.2 51.2v68.266667c0 28.266667 22.933333 51.2 51.2 51.2s51.2-22.933333 51.2-51.2v-68.266667c0-28.266667-22.933333-51.2-51.2-51.2zM1064.533333 380c-28.266667 0-51.2 22.933333-51.2 51.2v68.266667c0 28.266667 22.933333 51.2 51.2 51.2s51.2-22.933333 51.2-51.2v-68.266667c0-28.266667-22.933333-51.2-51.2-51.2z"  horiz-adv-x="1821" />

    
    <glyph glyph-name="weibo-" unicode="&#58906;" d="M843.392 456.064a17.536 17.536 0 0 1 21.056 13.312c13.824 61.76 6.08 107.52-23.104 136.064-46.848 45.952-129.472 26.432-132.992 25.6a17.664 17.664 0 0 1 8.256-34.304c0.768 0.128 67.392 15.808 100.224-16.512 19.84-19.52 24.256-54.208 13.312-103.232a17.472 17.472 0 0 1 13.248-20.928zM922.304 718.592c-98.624 87.424-259.2 41.792-265.92 39.808a23.424 23.424 0 1 1 13.12-45.056c1.408 0.384 142.656 40.32 221.824-30.08 51.264-45.504 67.264-129.152 47.488-248.384-2.24-12.8 6.592-24.96 19.264-27.008 1.28-0.128 2.624-0.32 3.904-0.32a23.488 23.488 0 0 1 23.104 19.712c22.528 136.256 1.472 234.304-62.784 291.328zM748.032 407.488s97.152 231.552-227.136 116.224c10.24 121.6-42.56 195.392-200.768 105.536 0 0-514.432-348.8-139.264-571.584 0 0 471.872-195.008 685.888 167.104 42.56 130.368-83.52 184.768-118.72 182.72z m-304.448-349.376c-156.032-17.92-292.224 51.52-304.128 155.072S244.48 415.36 400.512 433.28c156.096 17.92 292.224-51.584 304.128-155.072 11.904-103.68-104.96-202.24-261.056-220.096zM392.512 359.04c-84.096-7.68-147.072-71.296-140.608-142.208s79.808-122.24 163.968-114.688c84.032 7.616 147.072 71.36 140.608 142.336-6.528 70.912-79.872 122.176-163.968 114.56z m-35.52-204.672c-25.984 0-47.104 19.712-47.104 43.968 0 24.32 21.12 44.032 47.104 44.032 26.048 0 47.168-19.712 47.168-44.032 0-24.256-21.12-43.968-47.168-43.968z m81.472 73.984a21.12 21.12 0 1 0 21.184 21.056 21.12 21.12 0 0 0-21.184-21.056z"  horiz-adv-x="1024" />

    
    <glyph glyph-name="reshuiqi" unicode="&#58898;" d="M992.969697-110.312727h-961.939394a23.272727 23.272727 0 0 0 0 46.545454h961.939394a23.272727 23.272727 0 0 0 0-46.545454zM612.848485 487.020606v-155.151515a23.272727 23.272727 0 0 0-46.545455 0v155.151515a23.272727 23.272727 0 0 0 46.545455 0z m-139.636364-62.060606v-155.151515a23.272727 23.272727 0 0 0-46.545454 0v155.151515a23.272727 23.272727 0 0 0 46.545454 0z m-162.909091 85.333333a23.272727 23.272727 0 0 0 23.272728-23.272727v-155.151515a23.272727 23.272727 0 0 0-46.545455 0v155.151515a23.272727 23.272727 0 0 0 23.272727 23.272727z m311.482182 22.962425H290.629818a24.824242 24.824242 0 0 0-25.63103 24.358787 24.281212 24.281212 0 0 0 7.447273 17.687273L426.666667 727.505455c-3.335758 36.926061-38.787879 108.606061-108.606061 108.60606-56.28897 0-108.606061-67.646061-108.606061-108.60606v-729.212122s5.849212-25.6-24.653575-25.6A23.272727 23.272727 0 0 0 162.909091-1.706667v729.212122a135.571394 135.571394 0 0 0 43.969939 104.106666 163.203879 163.203879 0 0 0 113.539879 46.855758c94.952727 0 147.300848-64.077576 152.793212-135.447273l166.772364-167.718788a24.172606 24.172606 0 0 0 0-34.753939 24.824242 24.824242 0 0 0-18.199273-7.292121z m-165.40703 152.203636L333.575758 572.353939h248.242424z"  horiz-adv-x="1024" />

    
    <glyph glyph-name="shangxiazuoyou-" unicode="&#58989;" d="M413.28-36.16a51.84 51.84 0 0 0-36 18.08 54.72 54.72 0 0 0 0 72L672 384 377.28 714.4a54.72 54.72 0 0 0 0 72 48 48 0 0 0 66.08 0L768 420.16a54.72 54.72 0 0 0 0-72l-324.64-366.4a32.96 32.96 0 0 0-30.08-18.08z m0 0"  horiz-adv-x="1024" />

    
    <glyph glyph-name="guanjia4" unicode="&#58933;" d="M740.255 344.235l-83.543 20.862c34.55 30.742 62.492 72.97 81.151 119.603 27.69 5.004 53.618 26.997 57.803 77.501 4.06 48.804-12.02 68.943-32.63 76.998-0.566 15.607-2.517 30.082-3.367 43.769-9.314 154.215-86.846 222.025-212.113 208.589-16.425-1.762-32.473-2.801-48.804-0.126-65.418 10.761-133.731-39.49-166.99-91.881-43.077-67.81-26.652-158.872-26.746-161.862-18.942-8.936-33.008-29.421-29.201-75.487 4.028-48.899 28.477-71.05 55.129-76.966 19.005-46.759 47.482-89.427 82.378-120.421l-82.85-20.673c-111.343-28.318-192.384-127.677-192.384-245.966 0-0.024 0-0.047 0-0.071v-139.517c0-39.616 32.788-72.593 72.372-72.593h649.933c39.648 0 72.089 32.977 72.089 72.593v139.489c0 0.039 0 0.087 0 0.134 0 118.256-80.956 217.603-190.47 245.644zM275.564-83.07500000000005h-65.104c-18.376 0-43.235 26.4-43.235 41.661v139.489c0 71.523 51.542 153.523 108.337 191.534v-372.684zM331.227 613.994c0 6.482 0.944 12.838 2.864 19.068 5.16 16.614 29.137 30.774 35.651 42.291 13.212 22.97 35.349 39.544 61.557 45.079-6.58-1.558-4.574-1.192-2.485-1.192 9.679 0 17.527-7.846 17.527-17.527 0-4.668-1.825-8.91-4.801-12.051l-3.139-3.264c-1.966-1.988-3.18-4.723-3.18-7.741 0-6.082 4.931-11.013 11.013-11.013 0.045 0 0.09 0 0.135 0.001 0.622 0 1.221 0.031 1.85 0.158 45.72 7.552 125.896 27.627 186.311 79.672 6.809 5.907 15.758 9.507 25.548 9.507 11.365 0 21.596-4.851 28.738-12.595 13.586-14.753 39.452-33.066 42.441-52.89 3.367-22.152 8.622-47.829 7.647-77.532-4.846-143.076-102.233-270.074-204.97-270.074-102.611 0-182.221 95.5-202.704 270.106zM551.679-69.85900000000004h-31.938l-162.428 391.47 91.22 22.435c22.341-10.73 60.447-29.264 85.431-29.264 25.897 0 66.96 18.911 89.805 29.861l94.084-23.254-166.172-391.25zM902.306-41.41399999999999c0-15.261-12.712-45.186-27.973-45.186h-77.69v375.264c55.978-38.2 105.631-119.603 105.631-190.59v-139.489h0.031zM534.435 140.649zM509.199 140.649c-0.01-0.261-0.015-0.567-0.015-0.875 0-13.938 11.299-25.235 25.235-25.235 13.938 0 25.235 11.299 25.235 25.235 0 0.319-0.006 0.636-0.018 0.952-0.501 13.496-11.6 24.284-25.218 24.284-13.63 0-24.735-10.805-25.22-24.317zM534.435 50.71900000000005zM509.199 50.71900000000005c-0.01-0.261-0.015-0.567-0.015-0.875 0-13.938 11.299-25.235 25.235-25.235 13.938 0 25.235 11.299 25.235 25.235 0 0.319-0.006 0.636-0.018 0.952-0.501 13.496-11.6 24.284-25.218 24.284-13.63 0-24.735-10.805-25.22-24.317zM609.419 293.889l-45.374-13.153c-1.345-0.422-2.896-0.69-4.503-0.742-4.92 6.846-14.616 10.911-25.26 10.971-10.401-0.14-20.061-4.263-27.331-10.945-2.553 0.689-5.046 1.643-7.271 2.994l-39.851 10.907c-1.698 0.501-3.65 0.788-5.669 0.788-11.47 0-20.767-9.298-20.767-20.767 0-0.156 0.002-0.311 0.005-0.466v-51.455c0-14.16 12.87-24.354 26.494-20.39l47.262 13.782c7.332-6.514 16.898-10.604 27.438-10.887 10.51 0.284 20.075 4.374 27.47 10.887l47.325-13.782c1.753-0.533 3.769-0.839 5.856-0.839 11.522 0 20.862 9.341 20.862 20.862 0 0.129-0.001 0.258-0.004 0.386v51.459c0.001 0.082 0.002 0.177 0.002 0.274 0 11.557-9.368 20.925-20.925 20.925-2.051 0-4.034-0.295-5.908-0.846z"  horiz-adv-x="1024" />

    
    <glyph glyph-name="yuankuangjiantou" unicode="&#58896;" d="M512-64C264.96-64 64 136.96 64 384S264.96 832 512 832s448-200.96 448-448-200.96-448-448-448z m0 832c-211.744 0-384-172.256-384-384s172.256-384 384-384 384 172.256 384 384-172.256 384-384 384z m182.56-394.144c-12.544 12.608-33.376 12.64-45.952 0.064L544 270.016V576.672c0 17.76-14.208 32.16-32 32.16-17.76 0-32-14.4-32-32.16v-308.32L374.784 375.04c-12.48 12.608-32.704 12.736-45.312 0.256-12.64-12.512-12.672-32.896-0.192-45.504l159.36-161.056a32.187 32.187 0 0 1 22.88-9.568c8.16 0 16.384 3.168 22.624 9.312l0.064 0.128c0.032 0 0.064 0 0.096 0.064l160.192 159.68c12.576 12.544 12.608 32.928 0.064 45.504z"  horiz-adv-x="1024" />

    
    <glyph glyph-name="xiyiji" unicode="&#59144;" d="M137.846154 817.506462v-859.529847c0-10.476308 8.822154-19.416615 19.377231-19.416615h709.55323a19.692308 19.692308 0 0 1 19.377231 19.416615V817.506462a19.652923 19.652923 0 0 1-19.377231 19.416615H157.223385a19.692308 19.692308 0 0 1-19.377231-19.416615z m-39.384616 0A59.076923 59.076923 0 0 0 157.223385 876.307692h709.55323c32.374154 0 58.761846-26.624 58.761847-58.80123v-859.529847a59.076923 59.076923 0 0 0-58.761847-58.80123H157.223385A59.037538 59.037538 0 0 0 98.461538-42.023385V817.506462z m40.329847-168.132924v39.384616h748.307692v-39.384616h-748.307692zM211.889231 743.187692a19.692308 19.692308 0 1 0 0 39.384616h168.802461a19.692308 19.692308 0 0 0 0-39.384616H211.889231z m487.581538 0.945231a18.747077 18.747077 0 1 0 0 37.494154 18.747077 18.747077 0 0 0 0-37.494154z m112.561231 0a18.747077 18.747077 0 1 0 0 37.494154 18.747077 18.747077 0 0 0 0-37.494154zM512-7.089231a301.016615 301.016615 0 1 0 0 602.033231 301.016615 301.016615 0 0 0 0-602.033231z m0 39.384616a261.632 261.632 0 1 1 0 523.264 261.632 261.632 0 0 1 0-523.264z"  horiz-adv-x="1024" />

    
    <glyph glyph-name="mendian-" unicode="&#58628;" d="M607.785969 604.565756c-28.58603 23.233121-62.49427 31.666179-95.556237 23.792868-11.391433-2.293227-82.802785-18.511591-108.685243-68.965652-7.739257-15.085565-1.783621-33.587946 13.301944-41.327203 15.085565-7.738234 33.587946-1.784644 41.327203 13.301944 10.211562 19.906356 49.238375 33.43752 66.460601 36.856383a30.269367 30.269367 0 0 1 1.503236 0.329504c18.16162 4.459564 33.363842-3.865024 42.923559-11.63498 20.323864-16.518192 33.369982-44.997798 32.46538-70.870023-0.726547-20.764909-17.972309-36.026482-46.048733-59.209461-18.754114-15.485677-40.010209-33.036384-56.567287-56.268481-20.104877-28.209454-29.526448-59.280069-28.801948-94.983187 0.339737-16.739226 14.014164-30.076986 30.680736-30.076986 0.209778 0 0.423648 0.002047 0.634449 0.00614 16.95105 0.343831 30.414676 14.364135 30.070846 31.316209-1.008979 49.746958 28.688361 74.26842 63.076531 102.662068 31.211831 25.770918 66.586468 54.981164 68.316877 104.406804 1.567704 44.820767-20.060875 92.184447-55.101914 120.664053zM932.961655 570.73631c-22.726585 53.731708-55.254386 101.980547-96.68085 143.409057-41.427487 41.426463-89.677349 73.955288-143.409057 96.68085-55.644266 23.536019-114.73707 35.469804-175.63396 35.469804-60.897914 0-119.989695-11.933785-175.634984-35.469804-53.731708-22.726585-101.980547-55.254386-143.408034-96.68085-41.426463-41.427487-73.955288-89.677349-96.68085-143.409057-23.536019-55.644266-35.469804-114.73707-35.469804-175.63396s11.933785-119.989695 35.469804-175.633961c22.725561-53.731708 55.254386-101.980547 96.68085-143.409057 41.426463-41.426463 89.676326-73.955288 143.408034-96.68085 55.645289-23.536019 114.73707-35.469804 175.634984-35.469804 60.896891 0 119.989695 11.933785 175.63396 35.469804 53.731708 22.726585 101.980547 55.254386 143.409057 96.68085 41.426463 41.427487 73.955288 89.677349 96.68085 143.409057 23.536019 55.644266 35.469804 114.73707 35.469804 175.633961s-11.933785 119.989695-35.469804 175.63396zM517.238811 5.306989000000044c-214.933996 0-389.795361 174.861365-389.795361 389.795361s174.861365 389.795361 389.795361 389.79536S907.033148 610.036345 907.033148 395.10235 732.172807 5.306989000000044 517.238811 5.306989000000044zM502.228971 187.27930100000003m-33.769071 0a33.769071 33.769071 0 1 1 67.538141 0 33.769071 33.769071 0 1 1-67.538141 0Z"  horiz-adv-x="1024" />

    
    <glyph glyph-name="zhinengsuo" unicode="&#59065;" d="M838.656 186.368H623.104V726.016c0 34.304-28.16 62.464-62.464 62.464H244.736c-34.304 0-62.464-28.16-62.464-62.464V28.16c0-34.304 28.16-62.464 62.464-62.464H560.64c34.304 0 62.464 28.16 62.464 62.464V89.6h215.552c26.112 0 50.688 22.016 49.664 48.128-1.536 26.624-22.016 48.64-49.664 48.64zM560.64 16.896H244.736c-6.144 0-11.264 5.12-11.264 11.264V726.016c0 6.144 5.12 11.264 11.264 11.264H560.64c6.144 0 11.264-5.12 11.264-11.264v-539.648H429.568c-26.112 0-50.688-22.016-49.664-48.128 1.024-26.112 22.016-48.128 49.664-48.128h141.824v-61.44c0.512-6.656-4.608-11.776-10.752-11.776zM509.952 606.72H290.816c-5.632 0-10.24 4.608-10.24 10.24v55.808c0 5.632 4.608 10.24 10.24 10.24h219.136c5.632 0 10.24-4.608 10.24-10.24v-55.808c0-5.632-4.608-10.24-10.24-10.24z m-179.2-166.912h-42.496c-4.096 0-7.68 3.584-7.68 7.68v42.496c0 4.096 3.584 7.68 7.68 7.68h42.496c4.096 0 7.68-3.584 7.68-7.68v-42.496c0-4.096-3.584-7.68-7.68-7.68z m90.112 0h-42.496c-4.096 0-7.68 3.584-7.68 7.68v42.496c0 4.096 3.584 7.68 7.68 7.68h42.496c4.096 0 7.68-3.584 7.68-7.68v-42.496c0-4.096-3.584-7.68-7.68-7.68z m91.136 0h-42.496c-4.096 0-7.68 3.584-7.68 7.68v42.496c0 4.096 3.584 7.68 7.68 7.68H512c4.096 0 7.68-3.584 7.68-7.68v-42.496c0-4.096-3.584-7.68-7.68-7.68z m-181.248-84.48h-42.496c-4.096 0-7.68 3.584-7.68 7.68v42.496c0 4.096 3.584 7.68 7.68 7.68h42.496c4.096 0 7.68-3.584 7.68-7.68v-42.496c0-4.096-3.584-7.68-7.68-7.68z m90.112 0h-42.496c-4.096 0-7.68 3.584-7.68 7.68v42.496c0 4.096 3.584 7.68 7.68 7.68h42.496c4.096 0 7.68-3.584 7.68-7.68v-42.496c0-4.096-3.584-7.68-7.68-7.68z m91.136 0h-42.496c-4.096 0-7.68 3.584-7.68 7.68v42.496c0 4.096 3.584 7.68 7.68 7.68H512c4.096 0 7.68-3.584 7.68-7.68v-42.496c0-4.096-3.584-7.68-7.68-7.68z m-181.248-87.552h-42.496c-4.096 0-7.68 3.584-7.68 7.68v42.496c0 4.096 3.584 7.68 7.68 7.68h42.496c4.096 0 7.68-3.584 7.68-7.68v-42.496c0-4.096-3.584-7.68-7.68-7.68z m90.112 0h-42.496c-4.096 0-7.68 3.584-7.68 7.68v42.496c0 4.096 3.584 7.68 7.68 7.68h42.496c4.096 0 7.68-3.584 7.68-7.68v-42.496c0-4.096-3.584-7.68-7.68-7.68z m91.136 0h-42.496c-4.096 0-7.68 3.584-7.68 7.68v42.496c0 4.096 3.584 7.68 7.68 7.68H512c4.096 0 7.68-3.584 7.68-7.68v-42.496c0-4.096-3.584-7.68-7.68-7.68z"  horiz-adv-x="1024" />

    
    <glyph glyph-name="yonghu" unicode="&#59062;" d="M512-76.8c-253.952 0-460.8 206.848-460.8 460.8s206.848 460.8 460.8 460.8 460.8-206.848 460.8-460.8-206.848-460.8-460.8-460.8z m0 891.904c-237.568 0-431.104-193.536-431.104-431.104s193.536-431.104 431.104-431.104 431.104 193.536 431.104 431.104-193.536 431.104-431.104 431.104zM512 250.88c-110.592 0-200.192 89.6-200.192 200.192s89.6 200.192 200.192 200.192 200.192-89.6 200.192-200.192S622.592 250.88 512 250.88z m0 370.688c-94.208 0-170.496-76.288-170.496-170.496s76.288-170.496 170.496-170.496 170.496 76.288 170.496 170.496-76.288 170.496-170.496 170.496zM180.224 90.112l-23.552 18.432c86.528 109.056 215.552 172.032 354.816 172.032 139.264 0 268.288-62.464 354.816-172.032l-23.04-18.432C762.88 192 642.048 250.88 512 250.88c-130.048 0-250.88-58.88-331.776-160.768z"  horiz-adv-x="1024" />

    
    <glyph glyph-name="tubiaoku-" unicode="&#58993;" d="M514.56 386.56m-506.88 0a506.88 506.88 0 1 1 1013.76 0 506.88 506.88 0 1 1-1013.76 0ZM830.0032 83.2c-15.9232 82.2784-66.56 153.9584-140.6464 204.3904a26.88 26.88 0 0 1-29.2352-45.1072c61.0816-42.496 103.5264-100.864 116.7872-169.8816a25.856 25.856 0 0 1 26.5728-21.248h5.12a27.5456 27.5456 0 0 1 21.248 31.8464z m-76.8 445.9008a238.8992 238.8992 0 1 1-477.7472 0 231.6288 231.6288 0 0 1 121.856-207.0016 321.1776 321.1776 0 0 1-199.0656-238.848 26.88 26.88 0 0 1 21.248-32.0512h5.12a25.856 25.856 0 0 1 26.5216 21.248 269.5168 269.5168 0 0 0 260.096 217.6512h5.12a237.3632 237.3632 0 0 1 236.2368 238.8992z m-236.2368-185.8048h-8.1408a185.8048 185.8048 0 1 0 191.0784 185.8048c0-100.864-82.2784-183.1424-183.1424-185.8048z m0 0"  horiz-adv-x="1024" />

    
    <glyph glyph-name="shangxiazuoyouxiaojiantou" unicode="&#58885;" d="M711.1-32.3c-13.2 0-26.3 5-36.4 15.2L297.8 363.1c-20.1 20.2-20.1 53.1 0 73.3L674.7 816.8c20.1 20.3 52.6 20.3 72.7 0 20.1-20.2 20.1-53.1 0-73.3L406.9 399.8l340.5-343.6c20.1-20.3 20.1-53.1 0-73.3-10-10.1-23.2-15.2-36.3-15.2z"  horiz-adv-x="1024" />

    
    <glyph glyph-name="shangxiazuoyouxiaojiantou1" unicode="&#58886;" d="M865.28 185.344c15.872 15.872 16.384 41.984 0.512 57.856l-0.512 0.512-343.04 338.432c-15.872 15.872-41.984 16.384-57.856 0.512l-0.512-0.512-342.528-338.432c-15.872-15.872-15.872-41.984 0-58.368 15.872-15.872 41.984-15.872 58.368 0l313.344 307.712 314.368-307.712c15.872-15.36 41.984-15.36 57.856 0z"  horiz-adv-x="1024" />

    
    <glyph glyph-name="shu" unicode="&#59234;" d="M985.401991 664.6647h-78.763721v22.33259l-26.77066 10.510357c-5.353927 2.09982-132.713339 51.583739-244.122509 51.583739-52.161906 0-93.896342-10.750833-124.682448-32.040676-30.814758 21.289843-72.506216 32.040676-124.69575 32.040676-111.394844 0-238.754255-49.483919-244.122509-51.583739l-26.743031-10.510357v-22.33259H38.598009c-17.458592 0-31.618052-14.160483-31.618051-31.617028V50.525643c0-17.457569 14.160483-31.618052 31.618051-31.618052h946.803982c17.457569 0 31.617028 14.161506 31.617028 31.618052V633.047672c0.001023 17.456546-14.15946 31.617028-31.617028 31.617028z m-120.920782-6.411001v-462.293c-65.306248 22.361242-238.754255 73.042427-332.339513 18.402078V679.981517c26.389991 19.711908 63.531838 26.939505 103.603405 26.939505 104.702434 0 228.736107-48.667322 228.736108-48.667323z m-47.764768-491.105152h-277.980573c54.246376 51.456849 188.53765 26.714378 277.980573 0z m-430.349538 539.772475c40.071567 0 77.226718-7.242947 103.617731-26.939505v-465.617716c-93.613911 54.612719-267.033265 3.95814-332.339513-18.402079V658.253699c-0.001023 0 124.018324 48.667322 228.721782 48.667323z m97.009233-539.772475H205.339281c89.41427 26.742007 223.776152 51.526434 278.036855 0z m470.393477-84.99155H70.216061V601.416317h45.285302V124.991486h791.13793V601.416317h47.131343v-519.25932z"  horiz-adv-x="1024" />

    
    <glyph glyph-name="yuankuangjiantou1" unicode="&#59381;" d="M735.354997 415.907711H418.33269l100.740402 100.740402c12.463869 12.463869 12.463869 32.655747 0 45.119616s-32.655747 12.463869-45.119616 0L318.745555 406.559808c-12.463869-12.463869-12.463869-32.655747 0-45.119616l155.207921-155.207921c6.231935-6.231935 14.395872-9.347902 22.559808-9.347903s16.327874 3.115967 22.559808 9.347903c12.463869 12.463869 12.463869 32.655747 0 45.119616l-100.740402 100.740402h317.021284c17.636682 0 31.907711 14.271028 31.907711 31.907711s-14.271028 31.907711-31.906688 31.907711zM512 830.709995c-246.320035 0-446.708971-200.38996-446.708971-446.708972S265.680988-62.707948 512-62.707948 958.708971 137.680988 958.708971 384 758.319012 830.709995 512 830.709995z m0-829.603545c-211.139791 0-382.89355 171.753759-382.89355 382.89355s171.753759 382.89355 382.89355 382.89355 382.89355-171.753759 382.89355-382.89355-171.753759-382.89355-382.89355-382.89355z"  horiz-adv-x="1024" />

    
    <glyph glyph-name="yuankuangjiantou2" unicode="&#59383;" d="M543.907711 160.64500299999997L543.907711 477.66731l100.740402-100.740402c12.463869-12.463869 32.655747-12.463869 45.119616 0s12.463869 32.655747 0 45.119616L534.559808 577.25444499c-12.463869 12.463869-32.655747 12.463869-45.119616 0l-155.207921-155.20792099c-6.231935-6.231935-9.347902-14.395872-9.347903-22.559808s3.115967-16.327874 9.347903-22.559808c12.463869-12.463869 32.655747-12.463869 45.119616 0l100.740402 100.740402 0-317.021284c0-17.636682 14.271028-31.907711 31.907711-31.907711s31.907711 14.271028 31.907711 31.906688zM958.709995 384c0 246.320035-200.38996 446.708971-446.708972 446.708971S65.292052 630.3190119999999 65.292052 384 265.680988-62.70897100000002 512-62.70897100000002 958.709995 137.68098799999996 958.709995 384z m-829.603545 0c0 211.13979099 171.753759 382.89355 382.89355 382.89355s382.89355-171.753759 382.89355-382.89355-171.753759-382.89355-382.89355-382.89355-382.89355 171.753759-382.89355 382.89355z"  horiz-adv-x="1024" />

    
    <glyph glyph-name="yuankuangjiantou3" unicode="&#59385;" d="M288.645003 352.09228900000005L605.66731 352.09228900000005l-100.740402-100.740402c-12.463869-12.463869-12.463869-32.655747 0-45.119616s32.655747-12.463869 45.119616 0L705.25444499 361.440192c12.463869 12.463869 12.463869 32.655747 0 45.119616l-155.20792099 155.207921c-6.231935 6.231935-14.395872 9.347902-22.559808 9.347903s-16.327874-3.115967-22.559808-9.347903c-12.463869-12.463869-12.463869-32.655747 0-45.119616l100.740402-100.740402-317.021284 0c-17.636682 0-31.907711-14.271028-31.907711-31.907711s14.271028-31.907711 31.906688-31.907711zM512-62.70999500000005c246.320035 0 446.708971 200.38996 446.708971 446.708972S758.319012 830.707948 512 830.707948 65.291029 630.3190119999999 65.291029 384 265.680988-62.70999500000005 512-62.70999500000005z m0 829.603545c211.13979099 0 382.89355-171.753759 382.89355-382.89355s-171.753759-382.89355-382.89355-382.89355-382.89355 171.753759-382.89355 382.89355 171.753759 382.89355 382.89355 382.89355z"  horiz-adv-x="1024" />

    
    <glyph glyph-name="chuangdian" unicode="&#58943;" d="M843.456 668.896C839.136 705.44 804.768 736 767.936 736H256.064c-36.8 0-71.168-30.56-75.488-67.104L132 256h760L843.456 668.896zM148.768 672.608C154.976 725.312 202.976 768 256.032 768H768c53.024 0 101.056-42.688 107.264-95.36L928 224H96L148.8 672.64zM128 224v-192.096c0 0.128 255.968 0.16 767.904 0.096L896 224H128z m-32 32h832v-224.096c0-17.6-14.432-31.904-32.096-31.904H128.096A32.128 32.128 0 0 0 96 31.904V256z"  horiz-adv-x="1024" />

    
    <glyph glyph-name="qianbao1" unicode="&#58673;" d="M943.079204 281.20498499999997c-33.581404 121.267601-105.491556 214.882096-217.923508 278.564472-12.917814 7.31699-26.575513 13.410048-39.906763 20.085394 0.081868 0.185227 0.144293 0.589453 0.392968 0.813567 2.239101 2.091738 4.5263 4.139472 6.772565 6.217907 23.142156 21.399382 43.923432 46.14616 54.774068 75.344533 5.265163 14.150957 6.562777 20.309509 10.217179 33.447344 6.801219 41.499104-1.012098 66.721741-26.499785 87.692338-34.438975 28.342848-73.51989 31.696383-114.790786 15.049463-2.870512-1.148205-4.772929-1.988379-7.62809 0.62834-53.134653 48.617563-138.42927 49.070909-191.92619 1.066336-2.490847-2.243195-4.297069-2.80297-7.543152-1.367203-21.705366 9.668661-44.399292 11.735838-67.685742 7.075478-44.141407-8.822346-80.649607-45.158622-74.171768-94.780097 5.624361-43.05665 22.868921-80.307806 52.592275-112.420695 6.106361-6.593478 12.58727-12.859483 19.157211-19.525619-1.635322-0.76854-3.26041-1.572897-4.911082-2.305619C182.148031 509.594348 79.575084 363.58508500000005 67.561916 197.50884900000005c-3.318741-45.926139-0.545448-91.399954 11.375617-136.43168 18.767313-70.934895 83.242789-124.078758 160.664733-123.904788 182.447874 0.409342 364.894724-0.044004 547.344645 0.229232 58.610627 0.082892 103.729339 25.540901 136.471591 71.901966 16.639757 23.562755 24.425444 50.32452 28.945604 78.350127C962.912853 152.85269500000004 960.722873 217.492931 943.079204 281.20498499999997zM646.493445 192.78094799999997c-2.828554-25.368978-27.645943-26.825212-27.645943-26.825212l-77.016695-0.044004-0.028654-21.332864c-0.450276-13.541037-10.139404-20.910219-10.139404-20.910219-11.157643-10.059582-25.335207-6.483979-25.335207-6.483979-22.585451 5.563983-23.191277 26.820095-23.191277 26.820095l0 21.905943-77.331889 0.063448c-15.570351 0.380688-23.211745 14.108999-23.211745 14.108999-5.851546 9.895846-3.844746 19.89198-3.844746 19.89198 4.80977 24.41214 27.568168 24.592251 27.568168 24.592251l76.820211 0.032747 0 31.724014-77.3718 0.064471c-11.768586 0.736816-18.720238 8.029246-21.28886 11.328543 3.474291-4.924386 1.428604-2.02829-0.042981 0.056285-0.733746 0.947627-1.09806 1.5555-1.09806 1.5555s0.501444-0.710209 1.09806-1.5555c0.014327-0.01842 0.029677-0.037864 0.042981-0.056285-0.360221 0.511678-0.77468 1.09806-1.260774 1.787802-7.072408 10.024788-4.334933 21.664431-4.334933 21.664431 5.928297 24.164488 27.808657 23.827804 27.808657 23.827804l76.318767 0.017397 0 22.810589-90.872926 90.159647c-7.677211 8.830533-7.652651 18.427559-7.652651 18.427559-0.772633 20.563301 17.169855 28.091103 17.169855 28.091103 18.423465 7.782617 31.155028-4.371774 31.155028-4.371774l83.804611-82.793536 80.328273 79.233283c9.948037 8.101904 21.295 6.185159 21.295 6.185159 22.992747-2.942146 25.884749-24.358926 25.884749-24.358926 2.63514-14.066018-6.8442-24.132764-6.8442-24.132764l-95.448348-94.518118 0-14.732223 76.297277-0.044004c0.797194 0.037864 2.826507-0.188297 2.826507-0.188297 16.623383-2.15314 22.719511-16.321493 22.719511-16.321493 6.99975-14.116163-0.75626-27.04114-0.75626-27.04114-9.212244-15.894754-24.883907-15.084257-24.883907-15.084257l-76.202105-0.01228 0-31.724014 77.340076-0.151457c5.967185 0 12.124713-3.418007 12.124713-3.418007C649.177706 210.65896499999997 646.493445 192.78094799999997 646.493445 192.78094799999997z"  horiz-adv-x="1025" />

    
    <glyph glyph-name="tittlestyle" unicode="&#59021;" d="M686.933333 896l85.333334-8.533333L627.2-128l-85.333333 8.533333zM320 657.066667l42.666667-8.533334-68.266667-469.333333-42.666667 8.533333z"  horiz-adv-x="1024" />

    
    <glyph glyph-name="tittlestyle1" unicode="&#59022;" d="M392.533333 896l85.333334-8.533333L341.333333-128l-85.333333 8.533333zM725.333333 657.066667l42.666667-8.533334-59.733333-469.333333-42.666667 8.533333z"  horiz-adv-x="1024" />

    
    <glyph glyph-name="yizi" unicode="&#58627;" d="M846.05155555 358.96888889h-20.70755555L855.60888889 841.728c0.79644445 14.336-3.98222222 26.28266667-13.42577778 36.29511111C831.82933333 889.05955555 816.92444445 893.72444445 800.42666667 893.72444445H233.58577778c-15.36 0-30.15111111-4.55111111-40.50488889-15.58755556-10.35377778-11.03644445-15.58755555-25.03111111-14.67733334-40.27733334L208.66844445 358.96888889h-27.1928889c-28.21688889 0-52.90666667-21.73155555-52.90666666-49.94844444v-51.2c0-28.21688889 24.68977778-52.45155555 52.90666666-52.45155556h18.31822223l-21.504-304.01422222c-1.024-14.10844445 9.67111111-25.94133333 23.66577777-26.96533334 0.56888889 0 1.25155555 0.11377778 1.82044445 0.11377778 13.312 0 24.576 9.67111111 25.48622222 23.21066667L251.10755555 205.36888889h39.936l21.61777778-240.07111111c1.25155555-13.312 12.288-22.98311111 25.48622222-22.98311111 0.79644445 0 1.47911111 0.22755555 2.27555556 0.22755555 14.10844445 1.25155555 24.46222222 13.08444445 23.21066667 27.19288889l-21.16266667 235.52h349.29777778l-21.16266667-235.52c-1.25155555-14.10844445 9.10222222-26.16888889 23.21066667-27.42044444 0.79644445-0.11377778 1.59288889 0.11377778 2.27555556 0.11377778 13.08444445 0 24.23466667 9.44355555 25.48622222 22.75555555L742.96888889 205.36888889h39.936l21.73155556-307.54133334c0.91022222-13.53955555 12.17422222-23.43822222 25.48622222-23.43822222 0.56888889 0 1.25155555 0.22755555 1.82044444 0.22755556 14.10844445 1.024 24.68977778 12.62933333 23.66577778 26.73777778L834.21866667 205.36888889h11.94666666c28.21688889 0 49.37955555 24.23466667 49.37955556 52.45155556v51.2c-0.11377778 28.21688889-21.16266667 49.94844445-49.49333334 49.94844444zM233.58577778 845.93777778h566.72711111c2.73066667 0 4.32355555-1.36533333 4.20977778-1.13777778l-30.49244445-485.83111111H259.98222222l-29.696 485.14844444c0.56888889 0.56888889 1.59288889 1.82044445 3.29955556 1.82044445zM845.36888889 256.56888889000004H178.63111111v50.06222222h666.73777778v-50.06222222zM363.63377778 437.47555555h306.74488889c14.10844445 0 25.6 9.78488889 25.6 23.89333334s-11.49155555 23.89333333-25.6 23.89333333H363.63377778c-14.10844445 0-25.6-9.78488889-25.6-23.89333333s11.49155555-23.89333333 25.6-23.89333334z"  horiz-adv-x="1024" />

    
    <glyph glyph-name="star_full" unicode="&#58635;" d="M958.733019 484.651374L659.258367 542.40473 511.998465 810.464905 364.741633 542.40473 65.265958 484.651374 273.72878 261.255445 235.88794-42.463881000000015 511.998465 87.52056500000003 788.091594-42.463881000000015 750.250754 261.255445Z"  horiz-adv-x="1024" />

    
    <glyph glyph-name="liwuhe" unicode="&#58881;" d="M989.090909 670.254545h-162.909091c51.2 125.672727-9.309091 179.2-30.254545 195.49091-65.163636 44.218182-169.890909 13.963636-237.381818-69.818182-18.618182-23.272727-34.909091-48.872727-46.545455-74.472728-11.636364 25.6-27.927273 51.2-46.545455 74.472728C397.963636 879.709091 293.236364 909.963636 228.072727 863.418182c-20.945455-13.963636-81.454545-67.490909-30.254545-193.163637h-162.909091c-18.618182 0-34.909091-16.290909-34.909091-34.90909V453.818182c0-18.618182 16.290909-34.909091 34.909091-34.909091H46.545455V-11.636364c0-58.181818 46.545455-104.727273 104.727272-104.727272h721.454546c58.181818 0 104.727273 46.545455 104.727272 104.727272V418.909091h11.636364c18.618182 0 34.909091 16.290909 34.909091 34.909091v179.2c0 20.945455-16.290909 37.236364-34.909091 37.236363zM954.181818 488.727273H546.909091v109.381818H954.181818v-109.381818zM612.072727 751.709091c46.545455 58.181818 114.036364 76.8 144.290909 53.527273 27.927273-18.618182 25.6-72.145455-6.981818-137.309091h-183.854545c11.636364 27.927273 27.927273 58.181818 46.545454 83.781818zM267.636364 805.236364c30.254545 20.945455 95.418182 4.654545 144.290909-53.527273 18.618182-23.272727 37.236364-55.854545 48.872727-81.454546h-183.854545c-34.909091 65.163636-37.236364 116.363636-9.309091 134.981819zM69.818182 600.436364h407.272727v-109.381819H69.818182v109.381819zM116.363636-11.636364V418.909091h360.727273v-465.454546h-325.818182c-18.618182 0-34.909091 16.290909-34.909091 34.909091z m791.272728 0c0-18.618182-16.290909-34.909091-34.909091-34.909091h-325.818182v465.454546H907.636364V-11.636364z"  horiz-adv-x="1024" />

    
    <glyph glyph-name="youyanji" unicode="&#58893;" d="M777.102222 475.022222c-3.413333 0-5.688889 2.275556-5.688889 5.688889V786.773333c0 29.582222-23.893333 54.613333-54.613333 54.613334H409.6c-29.582222 0-54.613333-23.893333-54.613333-54.613334v-306.062222c0-3.413333-2.275556-5.688889-5.688889-5.688889s-5.688889 2.275556-5.688889 5.688889V786.773333c0 36.408889 29.582222 64.853333 64.853333 64.853334h307.2c36.408889 0 64.853333-29.582222 64.853334-64.853334v-306.062222c2.275556-3.413333 0-5.688889-3.413334-5.688889zM979.626667 211.057778H117.191111L353.848889 486.4h417.564444l1.137778-2.275556 207.075556-273.066666z m-838.542223 10.24h816.924445L766.862222 475.022222H359.537778L141.084444 221.297778zM975.075556-21.048889H124.017778V221.297778h851.057778v-242.346667z m-840.817778 11.377778h829.44V211.057778H134.257778v-220.728889z"  horiz-adv-x="1024" />

    
    <glyph glyph-name="WIFIwofi1" unicode="&#58935;" d="M425.5744 124.58666667a1.3504 1.3504 0 1 1 172.8512 0 1.3504 1.3504 0 1 1-172.8512 0zM512 384c-83.21706667 0-157.0816-39.3216-204.5952-100.352l45.53386667-35.4304c36.864 47.5136 94.27626667 78.0288 159.06133333 78.0288s122.12906667-30.5152 159.19786667-78.0288l45.39733333 35.4304C669.0816 344.6784 595.21706667 384 512 384zM512 729.83893333c-194.21866667 0-366.66026667-91.88693333-477.3888-234.0864l46.55786667-36.18133333C181.17973333 587.91253333 336.75946667 670.78826667 512 670.78826667c175.17226667 0 330.82026667-82.87573333 430.83093333-211.21706667l46.62613334 36.2496C878.592 638.02026667 706.21866667 729.83893333 512 729.83893333zM512 556.91946667c-138.71786667 0-261.87093333-65.536-340.92373333-167.1168l45.4656-35.4304C285.0816 442.368 391.7824 499.3024 512 499.3024s226.85013333-56.9344 295.5264-144.93013333l45.39733333 35.4304C773.87093333 491.3152 650.71786667 556.91946667 512 556.91946667z"  horiz-adv-x="1024" />

    
    <glyph glyph-name="rili" unicode="&#58958;" d="M505.6-32h-400c-35.2 0-64 9.6-86.4 32-9.6 9.6-12.8 22.4-12.8 35.2v608c0 35.2 38.4 64 83.2 67.2h83.2c12.8 0 19.2 3.2 19.2 12.8v25.6c6.4 25.6 25.6 38.4 57.6 38.4 25.6 0 44.8-16 48-41.6v-3.2c3.2-35.2 3.2-35.2 44.8-35.2h348.8c16 0 22.4 3.2 22.4 16v22.4c3.2 25.6 25.6 38.4 54.4 38.4 28.8 0 48-16 51.2-38.4 0-12.8-6.4-28.8 3.2-35.2 12.8-6.4 32-3.2 48-3.2h48c48-3.2 86.4-32 86.4-70.4v-601.6c0-41.6-41.6-70.4-99.2-73.6-128 6.4-265.6 6.4-400 6.4z m3.2 547.2h-400c-16 0-22.4-3.2-22.4-16v-441.6c0-19.2 9.6-22.4 28.8-22.4h787.2c28.8 0 28.8 0 28.8 22.4v438.4c0 16-3.2 19.2-22.4 19.2h-400zM259.2 131.2h-51.2c-22.4 0-32 9.6-35.2 25.6v54.4c0 16 12.8 25.6 32 25.6h108.8c22.4 0 32-9.6 32-28.8v-51.2c0-16-9.6-25.6-32-25.6H259.2zM508.8 131.2h-51.2c-22.4 0-35.2 9.6-35.2 25.6v51.2c0 19.2 9.6 25.6 32 28.8h105.6c19.2 0 32-9.6 32-25.6v-54.4c0-16-12.8-25.6-32-25.6h-51.2zM758.4 236.8h54.4c19.2 0 32-9.6 28.8-25.6v-57.6c0-16-12.8-25.6-32-25.6h-108.8c-19.2 0-32 9.6-32 25.6v54.4c0 16 12.8 25.6 32 25.6 19.2 6.4 38.4 3.2 57.6 3.2zM508.8 313.6h-54.4c-22.4 0-32 6.4-32 25.6v57.6c0 16 9.6 22.4 28.8 22.4h112c19.2 0 28.8-9.6 32-25.6v-54.4c0-16-9.6-25.6-32-25.6h-54.4zM259.2 419.2h54.4c19.2 0 32-9.6 32-22.4v-57.6c0-16-9.6-22.4-28.8-22.4h-112c-19.2 0-28.8 6.4-28.8 22.4v60.8c0 16 12.8 22.4 32 22.4 16-3.2 32-3.2 51.2-3.2zM755.2 313.6h-54.4c-19.2 0-32 9.6-32 25.6v57.6c0 16 9.6 22.4 28.8 22.4h112c19.2 0 28.8-9.6 28.8-22.4v-57.6c0-12.8-9.6-22.4-28.8-22.4-16-3.2-35.2-3.2-54.4-3.2z"  horiz-adv-x="1024" />

    
    <glyph glyph-name="luyouqi" unicode="&#58969;" d="M1018.285215 50.654504l-26.934553 243.14969a82.792498 82.792498 0 0 1-82.622026 80.803659h-43.243027v488.685985a31.480469 31.480469 0 1 1-62.960939 0v-488.685985h-251.730106v488.685985a31.480469 31.480469 0 1 1-62.960938 0v-488.685985H236.046696v488.685985a31.480469 31.480469 0 1 1-62.960939 0v-488.685985H110.124818c-44.890922 0-81.599195-36.140033-82.565201-80.917307L0.170472 31.107065a31.707765 31.707765 0 0 1-0.056824-5.341452L0 23.890423v-23.695588c0-45.629633 37.049217-82.735674 82.622026-82.735674h857.587079c45.572809 0 82.622026 37.10604 82.622026 82.735674v23.695588a82.39473 82.39473 0 0 1-4.545916 26.707257z m-78.07611-70.120756H82.622026a19.717911 19.717911 0 0 0-19.661087 19.661087v23.695588c0 10.796551 8.807713 19.661087 19.661087 19.661087h857.587079c10.853375 0 19.661087-8.807713 19.661088-19.661087v-23.695588a19.717911 19.717911 0 0 0-19.661088-19.661087z"  horiz-adv-x="1024" />

    
    <glyph glyph-name="shipinjiankong-gongjutubiao-shipinshangxiazuoyou" unicode="&#59296;" d="M2.85 896l231.31-508.84L0-128l1021.9 515.16 3.4 1.71L2.85 896z"  horiz-adv-x="1025" />

    
    <glyph glyph-name="shipinjiankong-gongjutubiao-shipinshangxiazuoyou1" unicode="&#59161;" d="M1021.15-128l-231.31 508.84000001L1024 896l-1021.9-515.16-3.4-1.71L1021.15-128z"  horiz-adv-x="1025" />

    
    <glyph glyph-name="shipinjiankong-gongjutubiao-shipinshangxiazuoyou-copy" unicode="&#59162;" d="M1024 893.15l-508.84000001-231.31L0 896l515.16-1021.9 1.71-3.4L1024 893.15z"  horiz-adv-x="1025" />

    
    <glyph glyph-name="shipinjiankong-gongjutubiao-shipinshangxiazuoyou-copy-copy" unicode="&#59164;" d="M0-125.14999999999998l508.84000001 231.31L1024-128l-515.16 1021.9-1.71 3.4L0-125.14999999999998z"  horiz-adv-x="1025" />

    
    <glyph glyph-name="zhuozi" unicode="&#58887;" d="M938.9 612.1H85.5c-7.1 0-13.7 3.8-17.3 9.9s-3.6 13.7-0.1 19.9l74.6 131.9c3.5 6.3 10.2 10.2 17.4 10.2h704.2c7.2 0 13.9-3.9 17.4-10.2L956.3 642c3.5-6.2 3.5-13.8-0.1-19.9-3.6-6.2-10.2-10-17.3-10z m-819.1 40h784.9l-52 91.9H171.8l-52-91.9z m668.1-294.8H227c-7 0-13.4 3.6-17.1 9.6s-3.9 13.4-0.7 19.6l50.4 98.3c3.4 6.7 10.3 10.9 17.8 10.9h460.1c7.5 0 14.4-4.2 17.8-10.9l50.4-98.3c3.2-6.2 2.9-13.6-0.7-19.6-3.7-5.9-10.2-9.6-17.1-9.6z m-528.2 40h495.4l-29.9 58.3H289.6l-29.9-58.3zM734 465.7c-11 0-20 9-20 20V629.3c0 11 9 20 20 20s20-9 20-20v-143.6c0-11.1-8.9-20-20-20z m0-278.9c-11 0-20 9-20 20V365.3c0 11 9 20 20 20s20-9 20-20v-158.4c0-11.1-8.9-20.1-20-20.1zM280.9 465.7c-11 0-20 9-20 20V629.3c0 11 9 20 20 20s20-9 20-20v-143.6c0-11.1-9-20-20-20z m0-278.9c-11 0-20 9-20 20V365.3c0 11 9 20 20 20s20-9 20-20v-158.4c0-11.1-9-20.1-20-20.1z m526-165.8c-11 0-20 9-20 20V628.3c0 11 9 20 20 20s20-9 20-20V41c0-11-9-20-20-20z m-596.8 0c-11 0-20 9-20 20V628.3c0 11 9 20 20 20s20-9 20-20V41c0-11-8.9-20-20-20z"  horiz-adv-x="1024" />

    
    <glyph glyph-name="xinaixin1" unicode="&#58632;" d="M1167.91 791.42l-3.557 3.556C1031.804 925.533 820.467 930.0840000000001 682.371 805.5 544.276 930.0840000000001 332.937 925.39 200.388 794.976 65.137 661.4300000000001 63.572 443.55 197.117 308.15599999999995l3.27-3.27L604.15-95.178c42.382-43.235 111.785-43.804 155.02-1.423l1.422 1.423 403.761 399.78c135.394 133.402 137.1 351.425 3.556 486.818z m-132.123-284.297c-9.956 0-18.204 8.106-18.204 18.204 0 65.563-53.19 118.754-118.753 118.754-4.836 0-9.53 1.99-12.942 5.404-3.414 3.413-5.405 8.107-5.405 12.942a18.148 18.148 0 0 0 18.205 18.204c85.758 0 155.303-69.545 155.303-155.304 0-9.955-8.107-18.204-18.204-18.204z"  horiz-adv-x="1628" />

    
    <glyph glyph-name="bingxiang" unicode="&#60434;" d="M739.328 885.76H305.152c-43.008 0-75.776-34.816-75.776-75.776v-849.92c0-43.008 34.816-75.776 75.776-77.824H737.28c43.008 0 75.776 34.816 75.776 75.776V809.984c0 40.96-32.768 75.776-73.728 75.776zM305.152 832.512H737.28c12.288 0 22.528-10.24 24.576-24.576v-309.248H282.624V809.984c0 12.288 10.24 22.528 22.528 22.528z m434.176-897.024H305.152c-12.288 0-24.576 10.24-24.576 24.576V445.44h479.232v-487.424c2.048-12.288-8.192-22.528-20.48-22.528zM346.112 242.688c-14.336 0-26.624-10.24-26.624-24.576V121.856c2.048-14.336 14.336-24.576 28.672-24.576 12.288 2.048 22.528 10.24 24.576 24.576v94.208c0 16.384-12.288 26.624-26.624 26.624z"  horiz-adv-x="1024" />

    
    <glyph glyph-name="tuoxie" unicode="&#58892;" d="M873.507 358.212H544.903c-6.923 0-12.535 5.612-12.535 12.535V574.144c0 97.508 79.329 176.837 176.837 176.837s176.837-79.329 176.837-176.837v-203.397c0-6.923-5.612-12.535-12.535-12.535z m-316.069 25.07h303.533V574.144c0 83.685-68.082 151.767-151.767 151.767s-151.767-68.082-151.767-151.767v-190.862zM709.205 2.97199999999998c-70.459 0-127.782 57.323-127.782 127.782V368.59000000000003c0 6.923 5.612 12.535 12.535 12.535s12.535-5.612 12.535-12.535v-237.836c0-56.636 46.076-102.712 102.712-102.712s102.712 46.076 102.712 102.712V368.59000000000003c0 6.923 5.612 12.535 12.535 12.535s12.535-5.612 12.535-12.535v-237.836c0-70.459-57.323-127.782-127.782-127.782zM873.507 415.031H544.903c-6.923 0-12.535 5.612-12.535 12.535s5.612 12.535 12.535 12.535h328.604c6.923 0 12.535-5.612 12.535-12.535s-5.612-12.535-12.535-12.535zM480.506 358.212H151.903c-6.923 0-12.535 5.612-12.535 12.535V574.144c0 97.508 79.329 176.837 176.837 176.837s176.836-79.329 176.836-176.837v-203.397c0.001-6.923-5.612-12.535-12.535-12.535z m-316.068 25.07h303.533V574.144c0 83.685-68.082 151.767-151.766 151.767-83.685 0-151.767-68.082-151.767-151.767v-190.862zM316.205 2.97199999999998c-70.459 0-127.782 57.323-127.782 127.782V368.59000000000003c0 6.923 5.612 12.535 12.535 12.535s12.535-5.612 12.535-12.535v-237.836c0-56.636 46.076-102.712 102.712-102.712 56.635 0 102.711 46.076 102.711 102.712V368.59000000000003c0 6.923 5.612 12.535 12.535 12.535s12.535-5.612 12.535-12.535v-237.836c0.001-70.459-57.322-127.782-127.781-127.782zM480.506 415.031H151.903c-6.923 0-12.535 5.612-12.535 12.535s5.612 12.535 12.535 12.535h328.603c6.923 0 12.535-5.612 12.535-12.535s-5.612-12.535-12.535-12.535z"  horiz-adv-x="1024" />

    
    <glyph glyph-name="icon--copy" unicode="&#58626;" d="M268.02606186-38.30899283999997a117.44211993 117.44211993 0 0 0-117.28124029 117.2812403L150.74482157 689.0277525399999A117.44211993 117.44211993 0 0 0 268.02606186 806.30899284l488.02831609 0a117.44211993 117.44211993 0 0 0 117.2812403-117.2812403l0-609.97506528a117.44211993 117.44211993 0 0 0-117.2812403-117.28124029z m0 792.97562884a65.79976308 65.79976308 0 0 1-65.71932328-65.71932326l0-609.97506528a65.79976308 65.79976308 0 0 1 65.71932328-65.71932326l488.02831609 0a65.79976308 65.79976308 0 0 1 65.71932328 65.71932326L821.77370123 689.0277525399999a65.79976308 65.79976308 0 0 1-65.71932328 65.71932326zM318.94446042 358.17882159a25.82117841 25.82117841 0 1 0 0 51.56191701l386.11107916 0a25.82117841 25.82117841 0 1 0 0-51.56191701zM318.94446042 236.23207242a25.82117841 25.82117841 0 1 0 0 51.24015779l263.44037172 0a25.82117841 25.82117841 0 1 0 0-51.64235684zM318.94446042 480.52776979a25.82117841 25.82117841 0 1 0 0 51.64235684l386.11107916 0a25.82117841 25.82117841 0 1 0 0-51.64235684z"  horiz-adv-x="1024" />

    
    <glyph glyph-name="bqxin" unicode="&#58625;" d="M590.223661 805.033086C378.65076 997.42474 27.357977 870.174372 27.357977 559.288265 27.357977 132.905841 590.223661-111.54432999999995 590.223661-111.54432999999995 590.223661-111.54432999999995 1153.089344 153.99499200000002 1153.089344 559.288265 1153.123414 870.174372 840.022777 992.178004 590.223661 805.033086L590.223661 805.033086Z"  horiz-adv-x="1159" />

    
    <glyph glyph-name="weibolu" unicode="&#59045;" d="M0 896h1024v-1024H0zM955.733333 725.333333H68.266667C42.666667 725.333333 21.333333 704 21.333333 678.4v-588.8c0-25.6 21.333333-46.933333 46.933334-46.933333h887.466666c25.6 0 46.933333 21.333333 46.933334 46.933333V678.4c0 25.6-21.333333 46.933333-46.933334 46.933333z m4.266667-635.733333c0-4.266667 0-4.266667 0 0L68.266667 85.333333c-4.266667 0-4.266667 0-4.266667 4.266667V678.4c0 4.266667 0 4.266667 4.266667 4.266667h887.466666c4.266667 0 4.266667 0 4.266667-4.266667v-588.8zM674.133333 618.666667h-512c-25.6 0-46.933333-21.333333-46.933333-46.933334v-375.466666c0-25.6 21.333333-46.933333 46.933333-46.933334h512c25.6 0 46.933333 21.333333 46.933334 46.933334v375.466666c0 25.6-21.333333 46.933333-46.933334 46.933334z m4.266667-422.4c0-4.266667 0-4.266667-4.266667-4.266667h-512c-4.266667 0-4.266667 0-4.266666 4.266667v375.466666c0 4.266667 0 4.266667 4.266666 4.266667h512c4.266667 0 4.266667 0 4.266667-4.266667v-375.466666zM490.666667 315.733333H349.866667c-12.8 0-25.6-8.533333-25.6-25.6 0-12.8 8.533333-21.333333 25.6-21.333333h140.8c12.8 0 21.333333 8.533333 21.333333 21.333333 0 17.066667-8.533333 25.6-21.333333 25.6zM853.333333 558.933333m-42.666666 0a42.666667 42.666667 0 1 1 85.333333 0 42.666667 42.666667 0 1 1-85.333333 0ZM853.333333 392.533333m-42.666666 0a42.666667 42.666667 0 1 1 85.333333 0 42.666667 42.666667 0 1 1-85.333333 0ZM853.333333 230.4m-42.666666 0a42.666667 42.666667 0 1 1 85.333333 0 42.666667 42.666667 0 1 1-85.333333 0Z"  horiz-adv-x="1024" />

    
    <glyph glyph-name="location" unicode="&#58652;" d="M512.103132 575.879021a106.221743 106.221743 0 1 0-75.507022-31.354611A106.221743 106.221743 0 0 0 512.103132 575.879021m0 63.989002a170.850635 170.850635 0 1 1 120.939214-49.911422A169.570855 169.570855 0 0 1 512.103132 639.868023zM805.172761 771.685367a407.609942 407.609942 0 0 1-586.139257 0 431.285873 431.285873 0 0 1 0-599.576948L512.103132-128l293.069629 300.108419a431.285873 431.285873 0 0 1 0 599.576948z m-44.152411-557.344207l-248.917218-255.956007-248.917217 255.956007a365.377201 365.377201 0 0 0 0 508.712565 346.82039 346.82039 0 0 0 497.834435 0 365.377201 365.377201 0 0 0 0-508.712565z"  horiz-adv-x="1024" />

    
    <glyph glyph-name="zhongyangkongtiao" unicode="&#58914;" d="M1007.773538 896H133.828923C60.258462 896 0 836.371692 0 762.998154v-315.392a133.789538 133.789538 0 0 1 133.828923-133.513846h874.496A133.789538 133.789538 0 0 1 1142.153846 447.606154V762.998154A134.222769 134.222769 0 0 1 1007.773538 896z m73.531077-460.957538c0-35.524923-28.120615-64.787692-62.621538-64.787693H119.414154c-34.422154 0-62.542769 29.223385-62.542769 64.787693v335.950769c0 35.564308 28.120615 64.787692 62.542769 64.787692h899.268923c34.461538 0 62.621538-29.223385 62.621538-64.787692v-335.950769zM971.618462 605.341538H145.841231a24.221538 24.221538 0 0 1-24.103385-24.064c0-13.193846 10.909538-24.103385 24.103385-24.103384H971.618462a24.221538 24.221538 0 0 1 24.064 24.103384 24.221538 24.221538 0 0 1-24.024616 24.064z m0-96.886153H145.841231a24.221538 24.221538 0 0 1-24.103385-24.024616c0-13.193846 10.909538-24.103385 24.103385-24.103384H971.618462a24.221538 24.221538 0 0 1 24.064 24.064 24.221538 24.221538 0 0 1-24.024616 24.103384zM267.027692 197.710769c-15.517538 41.826462-53.405538 56.753231-58.013538 58.446769a24.024615 24.024615 0 0 1-30.956308-14.178461v-0.157539a23.985231 23.985231 0 0 1 14.020923-30.798769l0.315077-0.157538s21.188923-8.585846 29.262769-29.814154c6.931692-18.313846 1.693538-42.968615-14.336-72.231385-56.280615-99.209846-5.198769-162.816 29.853539-182.862769a24.024615 24.024615 0 0 1 12.012308-3.465846 24.300308 24.300308 0 0 1 12.760615 45.213538l-0.118154 0.07877c-5.710769 3.465846-56.832 37.297231-11.421538 116.972307 22.921846 42.417231 28.672 80.265846 16.620307 112.955077z m321.575385 0c-15.478154 41.826462-53.405538 56.753231-58.013539 58.446769a24.024615 24.024615 0 0 1-30.956307-14.178461l-0.039385-0.157539a24.024615 24.024615 0 0 1 14.020923-30.798769l0.315077-0.157538s21.267692-8.585846 29.302154-29.814154c6.892308-18.313846 1.693538-42.968615-14.375385-72.231385-56.241231-99.209846-5.12-162.816 29.853539-182.862769a24.221538 24.221538 0 0 1 12.091077-3.465846 24.300308 24.300308 0 0 1 12.721231 45.252923l-0.07877 0.039385c-5.750154 3.465846-56.871385 37.297231-11.500307 116.972307 22.961231 42.417231 28.750769 80.265846 16.659692 112.955077z m-156.199385-30.995692c-16.659692 44.740923-59.746462 61.361231-61.44 61.952a24.024615 24.024615 0 0 1-30.956307-14.217846v-0.118154a24.182154 24.182154 0 0 1 13.74523-30.956308s24.654769-9.767385 32.728616-33.870769c7.483077-20.637538 1.693538-46.985846-16.108308-79.123692-74.633846-132.411077 30.444308-194.323692 31.586462-194.914462a24.221538 24.221538 0 0 1 12.091077-3.426461 24.300308 24.300308 0 0 1 12.72123 45.252923l-0.078769 0.039384c-6.931692 4.017231-63.212308 41.314462-13.233231 129.024 25.284923 45.883077 31.586462 85.976615 18.944 120.359385z m527.399385-49.033846a30.129231 30.129231 0 0 1 11.933538 40.763077l-0.866461 1.417846a30.208 30.208 0 0 1-41.275077 11.618461l-0.984615-0.590769a30.129231 30.129231 0 0 1-14.966154-26.584615l-45.449846-26.624v53.878154c0 0.630154 0.630154 0.630154 0.630153 1.299692a30.365538 30.365538 0 0 1 15.596308 25.954461 30.759385 30.759385 0 0 1-30.326154 31.153231h-0.866461a30.72 30.72 0 0 1-31.192616-30.326154v-0.827077c0-12.996923 7.798154-24.024615 18.825846-28.553846v-57.107692l-53.287384 30.483692a30.995692 30.995692 0 0 1-14.966154 26.624 31.310769 31.310769 0 0 1-42.259692-11.027692 31.271385 31.271385 0 0 1 11.067077-42.220308c9.728-5.828923 21.464615-4.529231 30.562461 0l48.128-27.254154-48.128-27.254153a30.286769 30.286769 0 0 1-30.562461 0 30.129231 30.129231 0 0 1-11.894154-40.802462l0.827077-1.417846a30.247385 30.247385 0 0 1 41.275077-11.579077l0.984615 0.551385a30.208 30.208 0 0 1 14.966154 26.624l53.287384 30.523077V9.846154a30.72 30.72 0 0 1-18.825846-28.553846c0-17.526154 13.666462-31.153231 31.192616-31.153231a30.798769 30.798769 0 0 1 31.192615 31.113846 29.892923 29.892923 0 0 1-16.226461 26.624V61.833846l45.48923-26.624c0-10.358154 5.198769-20.755692 14.966154-26.584615a31.350154 31.350154 0 0 1 42.220308 11.027692 31.232 31.232 0 0 1-11.027692 42.180923c-9.728 5.907692-21.464615 4.568615-30.523077 0l-48.128 27.254154 48.128 27.293538c9.058462-3.268923 20.755692-4.529231 30.562461 1.299693h-0.078769z"  horiz-adv-x="1142" />

    
    <glyph glyph-name="top" unicode="&#58637;" d="M928.3 583.1c0-13.2-5-26.3-15.20000001-36.4L532.9 169.79999999999995c-20.2-20.1-53.1-20.1-73.29999999 0L79.2 546.7c-20.3 20.1-20.3 52.6 0 72.7 20.2 20.1 53.1 20.1 73.3 0L496.2 278.9l343.6 340.5c20.3 20.1 53.1 20.1 73.3 1e-8 10.1-10 15.2-23.2 15.2-36.30000001z"  horiz-adv-x="1024" />

    
    <glyph glyph-name="kongqi" unicode="&#59259;" d="M117.248 625.408c118.0672 99.328 211.4048 178.0224 464.384 37.7344 121.6-67.3792 219.648-92.672 301.312-92.672 142.9504 0 235.52 77.9776 315.648 145.408a67.6352 67.6352 0 0 1-86.9888 103.4752c-118.0672-99.4816-211.3024-178.0224-464.4864-37.7344-334.4384 185.1904-491.1104 53.248-616.96-52.736a67.7376 67.7376 0 0 1-8.192-95.3344 67.584 67.584 0 0 1 95.232-8.192z m994.304-144.384c-118.0672-99.4304-211.3024-178.0736-464.4864-37.7856-334.336 185.1904-491.008 53.248-616.8576-52.736a67.6352 67.6352 0 0 1 86.9888-103.4752c118.0672 99.4816 211.456 178.0224 464.384 37.8368 121.6-67.3792 219.648-92.7744 301.3632-92.7744 142.8992 0 235.52 77.9776 315.5968 145.408a67.584 67.584 0 1 1-86.9888 103.5264z m0-338.432c-118.0672-99.328-211.3024-178.0224-464.4864-37.7344-334.336 185.1904-491.1104 53.2992-616.8576-52.736a67.6352 67.6352 0 0 1 86.9888-103.4752c118.1184 99.4816 211.456 177.9712 464.4864 37.888 121.6-67.4304 219.648-92.8256 301.312-92.8256 142.9504 0 235.52 77.9776 315.648 145.408a67.584 67.584 0 1 1-87.04 103.5264z"  horiz-adv-x="1228" />

    
    <glyph glyph-name="dianzan" unicode="&#58922;" d="M927.3 483v-12.3c-1.3-2.3-3.4-4.5-3.9-7.1-23.8-114.3-47.5-228.5-71.1-342.8-3.2-15.3-6.4-30.6-8.9-46-6.8-42-33.2-65.2-72.2-76.8H352c0.1 75.2 0.2 150.4 0.2 225.6 0 108.7 0.2 217.4-0.3 326.1-0.1 14.3 3.3 22.6 18.4 26.1 19 4.4 34.2 16 48.1 29.7 28.1 27.8 38.7 61.9 37.4 100.4-1.1 32.4 9.4 59.8 32.4 83.1 18.2 18.5 42 23.6 65.1 30.9h12.3c2.3-1.3 4.5-3.4 7-3.9 39.8-7.3 66.5-30.6 80.1-68 19.2-52.8 18.3-107.1 5.3-160.9-4.2-17.3 0.6-19.5 15.7-19.4 53.3 0.6 106.6 0.1 160 0.3 25.8 0.1 47.3-8.9 66.2-27 17.1-16.1 20.4-37.7 27.4-58zM105.4 503.6c6.6 6.9 4.8 16.8 9 24.7 13.3 25 32.8 39.6 61.8 39.8 27.4 0.1 54.8-1 82.1 0.4 16.4 0.9 18.9-5.6 18.8-20.1-0.4-174.6-0.3-349.1-0.2-523.7 0-8.9 0.7-17.7 1.1-26.6H171.2c-20.4 8.3-42.8 13.8-53.4 36.3-4.5 9.6-8.2 19.6-12.3 29.4-0.1 146.6-0.1 293.2-0.1 439.8z"  horiz-adv-x="1024" />

    
    <glyph glyph-name="qrcode" unicode="&#58629;" d="M742.8 774.5c-2.3-0.3-4.7-0.1-7-0.1-38 0-76 0.1-114-0.1-11 0-21.9-1.4-32.4-5.1-18.6-6.5-29.8-19.5-34.4-38.4-1.7-7-2.4-14.1-2.4-21.3 0-67.2-0.1-134.3 0.1-201.5 0-13.8 0.9-27.6 6.2-40.8 6.9-17.1 19.7-27.2 37.3-31.7 6.3-1.6 12.8-2.2 19.3-2.2h218c8.3 0 16.6 0.7 24.8 2.3 24.4 4.5 40.4 20.7 44.9 45 0.4 2.2-0.4 5.2 2.9 6.2v232c-0.4 0.4-0.5 0.9-0.5 1.5-1.5 4.8-1.7 9.8-3.3 14.7-7.1 21-21.7 33.4-42.8 38.8-6.4 1.6-12.8 2.4-19.5 2.1-1.3-0.1-3-1-3.9 0.9h-89c-0.4-2.6-2.7-2.1-4.3-2.3z m98.7-40.7c4 0 8.1-0.9 11.9-2.1 6.9-2.2 10.7-7.6 10.7-15.1 0-74.8 0.1-149.6-0.1-224.4 0-11.2-8.6-18-21.1-18.1-38.2-0.3-76.3-0.1-114.5-0.1h-113c-4.5 0-8.6 1.3-12.7 2.7-8.5 3.1-9.6 10.5-9.7 17.9-0.2 37.5-0.1 75-0.1 112.5V712.6c0 6.5 1.5 12.5 6.9 17 4.6 3.8 10.3 4.3 15.6 4.3 75.4 0.1 150.8 0 226.1-0.1zM742 776c-39.5-0.1-79-0.1-118.4-0.1-9.4 0-18.6-1-27.7-3.1-11.6-2.7-22.1-7.7-30-16.7-10.6-12.1-14.8-26.9-14.8-42.6-0.2-69.6-0.2-139.3 0-208.9 0-9.1 0.7-18.3 2.8-27.2 2.8-11.7 7.6-22.5 16.7-30.5 11.7-10.3 25.9-15 41.5-15 74.1-0.1 148.3-0.1 222.4 0 9.3 0 18.7 0.5 27.7 3 19 5.4 33.6 15.9 40 35.8 1.7 5.3 1.8 10.9 3.8 16.1-3.2-1-2.5-4-2.9-6.2-4.5-24.4-20.5-40.5-44.9-45-8.2-1.5-16.5-2.3-24.8-2.3h-218c-6.5 0-13 0.6-19.3 2.2-17.5 4.5-30.4 14.6-37.3 31.7-5.3 13.1-6.2 27-6.2 40.8-0.2 67.2-0.1 134.3-0.1 201.5 0 7.2 0.7 14.3 2.4 21.3 4.6 18.9 15.8 31.9 34.4 38.4 10.5 3.7 21.4 5 32.4 5.1 38 0.2 76 0.1 114 0.1 2.3 0 4.7-0.2 7 0.1 1.7 0.2 3.9-0.2 4.2 2.4-1.2-2.1-3.2-0.9-4.9-0.9zM120.6 485.7c2-12.5 5.5-24.4 14.3-34 11.5-12.7 26.5-18 43-18.1 75.1-0.3 150.2-0.3 225.4 0 9.4 0 18.9 1 28.1 3.9 24.5 7.7 39.1 27.3 39.1 53.1 0 74 0 147.9 0.1 221.9 0 6.4-0.8 12.6-2.4 18.8-5.8 22.4-24.5 39.1-47.5 42.3-4.1 0.6-8.2 1.1-12.4 1.1-2 0-4.5-0.6-5.2 2.4h-89c-1.3-2.1-3.3-0.9-4.9-0.9-41.1-0.1-82.2 0.2-123.3-0.2-14.8-0.1-29.2-2.6-42.2-10.7-12.5-7.8-19.8-19.1-23.7-33-0.8-2.7-0.2-5.7-1.9-8.2v-233c2.9-0.9 2.2-3.5 2.5-5.4z m39.5 231c0 8.1 6.2 14.6 14.5 16.3 4.4 0.9 8.8 1 13.2 1h219c4.3 0 8.4-0.8 12.4-2 7.5-2.4 10.8-6.9 10.8-14.6v-225.5c0-8.2-3.8-13.3-11.6-15.9-4-1.3-8.1-2.1-12.4-2-37.2 0.1-74.3 0.1-111.5 0.1-37.7 0-75.3-0.1-113 0.1-6.3 0-12.6 0.9-17.3 6.1-2.7 3-4.1 6.3-4.1 10.1-0.1 75.3-0.1 150.8 0 226.3zM119 488.5c0.1-8.9 2.6-17.3 6.4-25.1 10.4-21.4 28.9-31 51.6-31.2 74.5-0.6 149-0.2 223.4-0.2 9.3 0 18.6 0.8 27.7 3 27.1 6.7 43.6 26.4 43.8 54.4 0.5 73.8 0.2 147.6 0.2 221.4 0 4.9 0 9.8-0.9 14.7-3 16.2-10.7 29.4-24.2 39-11 7.8-23.5 11-36.9 11.4-2.3 0.1-4.9-1.2-6.9 0.9 0.7-3 3.3-2.4 5.2-2.4 4.2 0 8.3-0.6 12.4-1.1 23-3.2 41.7-19.9 47.5-42.3 1.6-6.2 2.4-12.4 2.4-18.8-0.1-74 0-147.9-0.1-221.9 0-25.7-14.6-45.3-39.1-53.1-9.2-2.9-18.7-3.9-28.1-3.9-75.1-0.2-150.2-0.3-225.4 0-16.5 0.1-31.4 5.4-43 18.1-8.8 9.7-12.3 21.5-14.3 34-0.3 1.9 0.4 4.6-2.6 5.2 1.3-0.1 0.9-1.3 0.9-2.1zM191.8 13.299999999999955c2.1 0.3 4.3 0.1 6.5 0.1h206c8.4 0 16.6 1 24.7 3.1 25.5 6.6 41.4 26.9 41.5 53.2 0.1 25.3 0 50.7 0 76v148c0 32.3-21.4 56.2-53.6 59.7-11.4 1.2-22.9 1.7-34.4 2-34.5 0.7-69-0.5-103.4-1.3-33-0.8-66-0.2-98.9-0.7-11.5-0.2-22.6-2.7-32.7-8.1-13.6-7.2-21.9-18.5-25.7-33.4-0.7-2.8-0.1-6.5-3.7-8v-234c2-5.5 2.2-11.4 3.9-17.1 5.9-20.7 19.4-33.3 39.8-38.9 6.5-1.8 13.2-2.3 19.9-2.1 1.4 0 3.3 1.1 4.4-0.9h2c0.2 2.3 2.1 2.2 3.7 2.4z m-11.4 40.6c-12.2 0-20.7 6.6-20.6 20.5 0.4 73.3 0.2 146.6 0.1 220 0 11.8 7 18.1 18.3 18.5 74.6 2.4 149.1 0.5 223.7 0.8 6.4 0 13.4 0.4 19.6-3 5.4-3 8.5-7.2 8.5-13.7-0.1-37.5 0-75 0-112.5 0-37.2-0.2-74.3 0.1-111.5 0.1-12.1-7.8-17.6-18.7-19.3-8.6-1.3-17 0-25.5 0.1-68.5 0.2-137 0.1-205.5 0.1zM193.5 11.799999999999955c67.8 0.1 135.7 0.1 203.5 0 9.4 0 18.7 0.2 28 2.1 12.5 2.5 23.8 7.8 32.5 17.1 9.7 10.4 14.5 23.4 14.5 37.6 0.2 74.3 0.1 148.7 0.1 223 0 6.3-0.4 12.4-2 18.5-5.3 19.9-17.3 33.7-36.7 41.3-13.3 5.2-27.3 5-41 5.3-23.1 0.5-46.2 0.9-69.3-0.5-19-1.2-38.2-0.3-57.3-1-27.6-0.9-55.3-0.3-83-0.2-6.4 0-12.7-0.6-19-2-18.4-4.2-32.5-13.8-40.6-31.3-2.6-5.7-2.8-12-5.2-17.7 3.7 1.5 3 5.2 3.7 8 3.8 14.9 12.2 26.2 25.7 33.4 10.2 5.4 21.2 7.9 32.7 8.1 33 0.5 65.9-0.1 98.9 0.7 34.5 0.8 68.9 2 103.4 1.3 11.5-0.2 23-0.7 34.4-2 32.2-3.5 53.5-27.4 53.6-59.7v-148c0-25.3 0.1-50.7 0-76-0.2-26.4-16-46.6-41.5-53.2-8.1-2.1-16.3-3.1-24.7-3.1h-206c-2.2 0-4.3 0.1-6.5-0.1-1.6-0.2-3.5 0-3.7-2.4 1.5 1.9 3.7 0.8 5.5 0.8zM143.6 765.1c13 8 27.4 10.6 42.2 10.7 41.1 0.4 82.2 0.1 123.3 0.2 1.6 0 3.6-1.2 4.9 0.9-1.7-1-3.6-0.5-5.4-0.5-44.8-0.3-89.6 0.8-134.4-0.6-18.9-0.6-34.9-8.1-46.5-23.6-6.3-8.4-9.1-18-9.7-28.3 1.8 2.4 1.2 5.4 1.9 8.2 4 13.9 11.2 25.2 23.7 33zM840 776c6.6 0.3 13.1-0.5 19.5-2.1 21-5.4 35.7-17.8 42.8-38.8 1.6-4.8 1.8-9.9 3.3-14.7v0.4c0.4 28.1-24.4 53.2-52.7 55.3-5.6 0.4-11.2-0.5-16.8 0.9 0.8-2.1 2.6-1.1 3.9-1zM181.6 11.799999999999955c-6.7-0.2-13.4 0.3-19.9 2.1-20.4 5.6-33.9 18.2-39.8 38.9-1.6 5.7-1.8 11.6-3.9 17.1 1.1-5.3 0.8-10.8 2.1-16.1 5.5-22.8 25.5-40.6 48.6-42 5.8-0.4 11.6 0.6 17.3-0.8-1.1 1.9-3 0.9-4.4 0.8zM608.4 228.79999999999995c-12.3-0.2-20.4-8.3-20.4-20V37c0-12.3 8.5-20.1 20.8-19.9 12.9 0.2 21 6.9 21.1 19.7 0.2 57.4 0.1 114.9 0 172.3 0 12-8.4 19.9-21.5 19.7zM861.4 228.60000000000002c-9.9 1.8-23.3-4.9-23.3-18.2-0.2-29.2 0-58.3 0-87.5v-87c0-1.6-0.1-3.4 0.4-4.9 3.3-9.4 14.4-16.2 23.5-14 11.4 2.7 17.9 7.2 18 21.4 0.2 55.5 0.1 111 0.1 166.5-0.1 14.4-4.6 21.1-18.7 23.7zM768.7 168.70000000000005c-2.6 9.4-13 16.8-22.1 15.1-12.4-2.4-19.4-6.6-19.5-20.9-0.3-41.1-0.1-82.3-0.1-123.4 0-13.8 5.7-20 17.5-22.2 11.1-2.1 24.4 4.5 24.5 19.1v63.5 64.5c0 1.3 0 2.9-0.3 4.3zM741 351.20000000000005c-8.7-1.9-14-10.2-14-19.8V243c0-13.1 4-21 18.1-23.7 10.3-1.9 24 5.2 23.9 18.5-0.1 15.8 0 31.6 0 47.5 0 15.3-0.2 30.6 0 46 0.3 19-14.6 22.8-28 19.9zM622 348.6c-4.9 3.4-10.1 3.3-15.4 3.3-10.5 0-18.5-7.9-18.5-18.3v-26c0-9-0.1-18 0-27 0.1-4.6 1.3-8.7 4.9-12.3 5.2-5.2 11.2-6.7 18.2-6.5 9.9 0.3 18.8 8.9 18.8 18.7 0.1 17.7 0.2 35.3-0.1 53 0 6.1-2.4 11.3-7.9 15.1zM878.3 340.1c-2.2 6.2-9.8 11.8-17.9 12-14.3 0.5-23.6-7.9-22.5-22.8 0.5-7 0.1-14 0.1-21v-25c0-1.5 0-3 0.4-4.4 3.2-10.3 12.9-15.5 23.9-14 11 1.6 17.4 8.4 17.6 19.7 0.3 15.8 0.1 31.7 0.1 47.5 0 2.9-0.8 5.5-1.7 8zM352 638.2c-1.9 7.3-7.9 12.7-15.4 13.7-1.3 0.2-2.7 0.4-4 0.4-0.6 0-1.5-0.2-1.7 0.8h-28.8c-0.4-0.7-1.1-0.3-1.6-0.3-13.3 0-26.6 0.1-39.9-0.1-4.8 0-9.5-0.9-13.7-3.5-4.1-2.5-6.4-6.2-7.7-10.7-0.2-0.9 0-1.9-0.6-2.6v-75.5c1-0.2 0.7-1.1 0.8-1.7 0.7-4.1 1.8-7.9 4.6-11 3.7-4.1 8.6-5.8 13.9-5.9 24.3-0.1 48.7-0.1 73 0 3.1 0 6.1 0.3 9.1 1.3 7.9 2.5 12.7 8.9 12.7 17.2v71.9c0.1 2-0.2 4-0.7 6zM785.5 645.9c-1.9 7.3-7.9 12.7-15.4 13.7-1.3 0.2-2.7 0.4-4 0.4-0.6 0-1.5-0.2-1.7 0.8h-28.8c-0.4-0.7-1.1-0.3-1.6-0.3-13.3 0-26.6 0.1-39.9-0.1-4.8 0-9.5-0.9-13.7-3.5-4.1-2.5-6.4-6.2-7.7-10.7-0.2-0.9 0-1.9-0.6-2.6v-75.5c1-0.2 0.7-1.1 0.8-1.7 0.7-4.1 1.8-7.9 4.6-11 3.7-4.1 8.6-5.8 13.9-5.9 24.3-0.1 48.7-0.1 73 0 3.1 0 6.1 0.3 9.1 1.3 7.9 2.5 12.7 8.9 12.7 17.2v71.9c0.2 2-0.2 4.1-0.7 6zM351.4 219.39999999999998c-1.9 7.3-7.9 12.7-15.4 13.7-1.3 0.2-2.7 0.4-4 0.4-0.6 0-1.5-0.2-1.7 0.8h-28.8c-0.4-0.7-1.1-0.3-1.6-0.3-13.3 0-26.6 0.1-39.9-0.1-4.8 0-9.5-0.9-13.7-3.5-4.1-2.5-6.4-6.2-7.7-10.7-0.2-0.9 0-1.9-0.6-2.6v-75.5c1-0.2 0.7-1.1 0.8-1.7 0.7-4.1 1.8-7.9 4.6-11 3.7-4.1 8.6-5.8 13.9-5.9 24.3-0.1 48.7-0.1 73 0 3.1 0 6.1 0.3 9.1 1.3 7.9 2.5 12.7 8.9 12.7 17.2v71.9c0.1 2-0.2 4-0.7 6z"  horiz-adv-x="1024" />

    


  </font>
</defs>
</svg>
